<svg id="Layer_1" data-name="Layer 1" xmlns="http://www.w3.org/2000/svg" xmlns:xlink="http://www.w3.org/1999/xlink" viewBox="0 0 711.1 426.7"><defs><style>.cls-1,.cls-17,.cls-2,.cls-6{fill:#fff;}.cls-1,.cls-11,.cls-14,.cls-20,.cls-22,.cls-23,.cls-24,.cls-25,.cls-26,.cls-27,.cls-28,.cls-48{stroke:#000;}.cls-1,.cls-11,.cls-14,.cls-2,.cls-22,.cls-23,.cls-24,.cls-25,.cls-26,.cls-27,.cls-28,.cls-3,.cls-4,.cls-8,.cls-9{stroke-linecap:round;}.cls-1,.cls-11,.cls-14,.cls-2,.cls-3,.cls-4,.cls-8,.cls-9{stroke-linejoin:round;}.cls-17,.cls-18,.cls-2,.cls-45,.cls-46,.cls-56,.cls-8,.cls-9{stroke:#010101;}.cls-12,.cls-14,.cls-20,.cls-22,.cls-23,.cls-24,.cls-25,.cls-26,.cls-27,.cls-28,.cls-3,.cls-4,.cls-45,.cls-48,.cls-57{fill:none;}.cls-3,.cls-4{stroke:#c8cdd8;}.cls-3{stroke-width:2px;}.cls-22,.cls-23,.cls-24,.cls-25,.cls-26,.cls-27,.cls-28,.cls-4{stroke-width:3px;}.cls-5,.cls-8{fill:#2b6bb4;}.cls-11,.cls-7{fill:#e5e5e5;}.cls-9{fill:#88c5ec;}.cls-10{fill:#efefef;}.cls-13{fill:url(#New_Gradient_Swatch);}.cls-15{fill:url(#New_Gradient_Swatch-2);}.cls-16{fill:#161616;}.cls-17,.cls-18,.cls-20,.cls-22,.cls-23,.cls-24,.cls-25,.cls-26,.cls-27,.cls-28,.cls-45,.cls-46,.cls-48,.cls-56,.cls-57{stroke-miterlimit:10;}.cls-18{fill:url(#New_Gradient_Swatch-3);}.cls-19{fill:url(#linear-gradient);}.cls-20{stroke-width:0.75px;}.cls-21{fill:url(#linear-gradient-2);}.cls-23{stroke-dasharray:0 6.9;}.cls-24{stroke-dasharray:0 0 0 6.9;}.cls-25{stroke-dasharray:0 6.84;}.cls-26{stroke-dasharray:0 0 0 6.84;}.cls-27{stroke-dasharray:0 6.32;}.cls-28{stroke-dasharray:0 0 0 6.32;}.cls-29{fill:url(#linear-gradient-3);}.cls-30{fill:url(#New_Gradient_Swatch-4);}.cls-31{fill:#f2f2f2;}.cls-32{fill:#fb8a78;}.cls-33{fill:#333;}.cls-34{fill:#4d4d4d;}.cls-35{fill:#e6e6e6;}.cls-36{fill:url(#New_Gradient_Swatch-5);}.cls-37{fill:#393c3d;}.cls-38{fill:url(#New_Gradient_Swatch-6);}.cls-39{fill:#9988c0;}.cls-40{fill:#7562af;}.cls-41{fill:url(#linear-gradient-4);}.cls-42{fill:url(#linear-gradient-5);}.cls-43{fill:url(#New_Gradient_Swatch-7);}.cls-44{fill:url(#New_Gradient_Swatch-8);}.cls-46{fill:url(#New_Gradient_Swatch-9);}.cls-47{fill:url(#linear-gradient-6);}.cls-49{fill:url(#New_Gradient_Swatch-10);}.cls-50{fill:url(#linear-gradient-7);}.cls-51{fill:url(#New_Gradient_Swatch-11);}.cls-52{fill:url(#New_Gradient_Swatch-12);}.cls-53{fill:url(#New_Gradient_Swatch-13);}.cls-54{fill:url(#linear-gradient-8);}.cls-55{fill:url(#New_Gradient_Swatch-14);}.cls-56{fill:url(#New_Gradient_Swatch-15);}.cls-57{stroke:#fff;stroke-width:1.3px;}</style><linearGradient id="New_Gradient_Swatch" x1="6.11" y1="262.73" x2="41.33" y2="262.73" gradientUnits="userSpaceOnUse"><stop offset="0.01" stop-color="#4ba5dc"/><stop offset="1" stop-color="#405daa"/></linearGradient><linearGradient id="New_Gradient_Swatch-2" x1="130.89" y1="263.9" x2="165.92" y2="263.9" xlink:href="#New_Gradient_Swatch"/><linearGradient id="New_Gradient_Swatch-3" x1="209.13" y1="258.61" x2="232.18" y2="258.61" xlink:href="#New_Gradient_Swatch"/><linearGradient id="linear-gradient" x1="253.11" y1="174.87" x2="297.55" y2="174.87" gradientUnits="userSpaceOnUse"><stop offset="0.01" stop-color="#ffdb59"/><stop offset="1" stop-color="#dce11f"/></linearGradient><linearGradient id="linear-gradient-2" x1="253.11" y1="193.33" x2="297.55" y2="193.33" xlink:href="#linear-gradient"/><linearGradient id="linear-gradient-3" x1="253.11" y1="211.79" x2="297.55" y2="211.79" xlink:href="#linear-gradient"/><linearGradient id="New_Gradient_Swatch-4" x1="238.04" y1="193.33" x2="252.65" y2="193.33" xlink:href="#New_Gradient_Swatch"/><linearGradient id="New_Gradient_Swatch-5" x1="238.04" y1="174.87" x2="252.65" y2="174.87" xlink:href="#New_Gradient_Swatch"/><linearGradient id="New_Gradient_Swatch-6" x1="238.04" y1="211.79" x2="252.65" y2="211.79" xlink:href="#New_Gradient_Swatch"/><linearGradient id="linear-gradient-4" x1="315.82" y1="183.79" x2="360.26" y2="183.79" xlink:href="#linear-gradient"/><linearGradient id="linear-gradient-5" x1="315.82" y1="202.25" x2="360.26" y2="202.25" xlink:href="#linear-gradient"/><linearGradient id="New_Gradient_Swatch-7" x1="300.74" y1="183.79" x2="315.36" y2="183.79" xlink:href="#New_Gradient_Swatch"/><linearGradient id="New_Gradient_Swatch-8" x1="300.74" y1="202.25" x2="315.36" y2="202.25" xlink:href="#New_Gradient_Swatch"/><linearGradient id="New_Gradient_Swatch-9" x1="317.81" y1="245.58" x2="339.05" y2="245.58" xlink:href="#New_Gradient_Swatch"/><linearGradient id="linear-gradient-6" x1="452.11" y1="163.87" x2="526.2" y2="163.87" xlink:href="#linear-gradient"/><linearGradient id="New_Gradient_Swatch-10" x1="423.33" y1="163.87" x2="451.24" y2="163.87" xlink:href="#New_Gradient_Swatch"/><linearGradient id="linear-gradient-7" x1="452.11" y1="232.15" x2="526.2" y2="232.15" xlink:href="#linear-gradient"/><linearGradient id="New_Gradient_Swatch-11" x1="423.33" y1="232.15" x2="451.24" y2="232.15" xlink:href="#New_Gradient_Swatch"/><linearGradient id="New_Gradient_Swatch-12" x1="474.53" y1="197.66" x2="485.71" y2="197.66" xlink:href="#New_Gradient_Swatch"/><linearGradient id="New_Gradient_Swatch-13" x1="489.4" y1="197.66" x2="500.58" y2="197.66" xlink:href="#New_Gradient_Swatch"/><linearGradient id="linear-gradient-8" x1="615.77" y1="191.82" x2="689.86" y2="191.82" xlink:href="#linear-gradient"/><linearGradient id="New_Gradient_Swatch-14" x1="586.99" y1="191.82" x2="614.9" y2="191.82" xlink:href="#New_Gradient_Swatch"/><linearGradient id="New_Gradient_Swatch-15" x1="680.38" y1="175.21" x2="697.23" y2="175.21" xlink:href="#New_Gradient_Swatch"/></defs><path class="cls-1" d="M51.23,237.7a6.32,6.32,0,0,0,3,1.31c1.27,0,6.12-7.92,6.12-7.92l-11.72-4.15"/><rect class="cls-2" x="48.62" y="144.2" width="72.76" height="86.93"/><rect class="cls-3" x="56.54" y="160.94" width="13.73" height="13.49"/><line class="cls-4" x1="76.22" y1="163.88" x2="112.29" y2="163.88"/><line class="cls-4" x1="112.29" y1="171.49" x2="76.22" y2="171.49"/><line class="cls-4" x1="76.22" y1="184.08" x2="112.29" y2="184.08"/><line class="cls-4" x1="112.29" y1="191.69" x2="76.22" y2="191.69"/><line class="cls-4" x1="76.22" y1="204.28" x2="112.29" y2="204.28"/><line class="cls-4" x1="112.29" y1="211.89" x2="76.22" y2="211.89"/><polygon class="cls-5" points="72.13 161.39 62.38 171.04 59.23 167.96 60.68 166.5 62.38 168.14 70.67 159.93 72.13 161.39"/><rect class="cls-3" x="56.54" y="181.14" width="13.73" height="13.49"/><polygon class="cls-5" points="72.13 181.59 62.38 191.24 59.23 188.16 60.68 186.7 62.38 188.34 70.67 180.13 72.13 181.59"/><rect class="cls-3" x="56.54" y="201.34" width="13.73" height="13.49"/><polygon class="cls-5" points="72.13 201.79 62.38 211.44 59.23 208.36 60.68 206.9 62.38 208.54 70.67 200.34 72.13 201.79"/><path class="cls-6" d="M148.11,250.44,134.9,262.5l-20.85-24.79-5.93-6.45a6.78,6.78,0,0,1-1.78-4.38v-.06a38.85,38.85,0,0,0-.88-5.6s.26-2.27,3.4-1.25c2.55.82,5,5.19,5.89,6.85a7.23,7.23,0,0,0,.51.84c.09.14.2.27.3.4a21.78,21.78,0,0,0,3.44,3.23,6.49,6.49,0,0,0,3.36,1.35,5.08,5.08,0,0,0,4.54-1.91c2.85-3.45-.42-5.51-.42-5.51a23.11,23.11,0,0,0-10.85-5.75c-.32-.09-.64-.16-1-.23-6.23-1.34-8-5.63-5.47-6.22s13.51,2.62,13.51,2.62A5.41,5.41,0,0,1,125,214a5.14,5.14,0,0,1,3.5,0l15.19,7.29a4.53,4.53,0,0,1,2.52,4.67c-.56,4.21-1.46,11.49-1.5,15.65C144.61,247.68,148.11,250.44,148.11,250.44Z"/><path class="cls-7" d="M128.53,231.25a6.71,6.71,0,0,1-4.86,2.38,7.14,7.14,0,0,1-5-1.64,16.94,16.94,0,0,1-3.42-4.33c.09.14.2.27.3.4a21.78,21.78,0,0,0,3.44,3.23,6.49,6.49,0,0,0,3.36,1.35,5.08,5.08,0,0,0,4.54-1.91c2.85-3.45-.42-5.51-.42-5.51a23.11,23.11,0,0,0-10.85-5.75c8.33,1.78,12.45,5.94,12.45,5.94S131.55,227.6,128.53,231.25Z"/><polyline class="cls-7" points="123.35 214.96 132.84 220.07 122.7 215.64"/><rect class="cls-8" x="110.78" y="205.12" width="7.1" height="33.53" transform="translate(-131.64 179.4) rotate(-52.94)"/><polygon class="cls-9" points="98.81 214.62 93.1 205.85 93.1 205.85 103.09 208.95 98.81 214.62"/><path class="cls-9" d="M125.57,234.83l3.83,2.89a1.44,1.44,0,0,0,2-.28l2.55-3.38a1.43,1.43,0,0,0-.28-2l-3.83-2.89Z"/><path class="cls-10" d="M56.38,231.89c-1.82,4.77-5.46,2.5-5.46,2.5l.21-1.45a3.47,3.47,0,0,0,5.25-1.05Z"/><path class="cls-11" d="M37.92,226.75a8.05,8.05,0,0,1-.43-7.14c1.64-4,11.28-10.73,11.28-10.73C45.89,216.38,43,223.75,37.92,226.75Z"/><path class="cls-1" d="M54.44,205.89a4,4,0,0,0-3.14,0c-1.75,1-5,8.93-5,8.93s-2,5.24-3.81,7.47a39.46,39.46,0,0,1-4.52,4.46,8.05,8.05,0,0,1-.43-7.14c1.64-4,11.28-10.73,11.28-10.73s-8.52,2.69-12.23,5.12-5,14.23-5,14.23-.52,10.49-3.34,14.1S23.16,249,23.16,249l13.71,11.8,3.41-5.11s4.13-1.71,5.9-5.35,5-11.9,5-11.9a24.85,24.85,0,0,0-.46-7.74c-.92-4.82,4.86-13.81,4.86-13.81s2.4-4.55,1.5-8.17A3.69,3.69,0,0,0,54.44,205.89Z"/><path class="cls-12" d="M32.38,256.9a16.67,16.67,0,0,1,4.86-5.42c4.2-2.57,5.42-1.89,7.17-3.29s6.15-8.26,6.29-8.48h0l.52-1.31s-3.28,8.26-5,11.9-5.9,5.35-5.9,5.35l-3.41,5.11Z"/><polygon class="cls-1" points="37.91 264.78 18.8 248.77 22.64 244.55 41.76 260.56 37.91 264.78"/><polygon class="cls-13" points="28.58 279.44 6.11 260.51 18.86 246.01 41.33 264.95 28.58 279.44"/><path class="cls-6" d="M106.34,226.88a7.37,7.37,0,0,0,.2,1.41h9.24l-.22-.23c-.1-.13-.21-.26-.3-.4a7.23,7.23,0,0,1-.51-.84c-.86-1.66-3.34-6-5.89-6.85-3.14-1-3.4,1.25-3.4,1.25a38.85,38.85,0,0,1,.88,5.6Z"/><path class="cls-6" d="M114.66,219.24c.33.07.65.14,1,.23a27,27,0,0,1,4.13,1.39v-6c-3.45-.91-8.91-2.21-10.57-1.81C106.7,213.61,108.43,217.9,114.66,219.24Z"/><path class="cls-14" d="M128.06,227.8a3.64,3.64,0,0,0-1.58-2.58,23.11,23.11,0,0,0-10.85-5.75c-.32-.09-.64-.16-1-.23-6.23-1.34-8-5.63-5.47-6.22s13.51,2.62,13.51,2.62A5.41,5.41,0,0,1,125,214a5.14,5.14,0,0,1,3.5,0l15.19,7.29a4.53,4.53,0,0,1,2.52,4.67c-.56,4.21-1.46,11.49-1.5,15.65-.07,6.1,3.43,8.86,3.43,8.86L134.9,262.5l-20.85-24.79-5.93-6.45a6.78,6.78,0,0,1-1.78-4.38v-.06a38.85,38.85,0,0,0-.88-5.6s.26-2.27,3.4-1.25c2.55.82,5,5.19,5.89,6.85a7.23,7.23,0,0,0,.51.84c.09.14.2.27.3.4a21.78,21.78,0,0,0,3.44,3.23,6.49,6.49,0,0,0,3.36,1.35l.34,0"/><polygon class="cls-1" points="134.3 266.48 152.8 249.76 148.8 245.69 130.3 262.42 134.3 266.48"/><polygon class="cls-15" points="144.18 280.78 165.92 261.01 152.63 247.01 130.89 266.78 144.18 280.78"/><rect class="cls-16" x="223.84" y="146.94" width="152.35" height="103.27" rx="8.64"/><rect class="cls-6" x="257.43" y="131.46" width="85.16" height="134.24" transform="translate(498.59 -101.44) rotate(90)"/><path class="cls-17" d="M231.28,223.47a9.31,9.31,0,0,1-1.1-4.39V208.69s.23-4.73-2.62-5.42-4.05,3.77-4.28,5.08-.86,13.69-.86,13.69L220,217.31l1.88-7.3,2.28-3.08-.28-5.54a30.54,30.54,0,0,0-7.76,6.16,16.5,16.5,0,0,0-3.88,8.62L210,222.91a6.07,6.07,0,0,0-.15,3.43c.89,3.61,2.9,12,3.74,16.59a37.91,37.91,0,0,1,.4,10.83h16.21a69.05,69.05,0,0,0,4.38-15.68c1-7.82-.74-9.82-.74-9.82Z"/><path class="cls-17" d="M230.18,219.08V208.69s.23-4.73-2.62-5.42-4.05,3.77-4.28,5.08-.86,13.69-.86,13.69"/><polyline class="cls-18" points="209.13 265.06 212.09 251.54 232.06 253.08 232.18 265.69"/><polygon class="cls-19" points="297.55 181.67 257.21 181.67 257.21 172.18 253.11 168.08 297.55 168.08 297.55 181.67"/><line class="cls-20" x1="270.37" y1="171.67" x2="294.09" y2="171.67"/><line class="cls-20" x1="270.37" y1="174.87" x2="294.09" y2="174.87"/><line class="cls-20" x1="270.37" y1="178.08" x2="294.09" y2="178.08"/><path d="M266,176.2a2,2,0,0,1-1.71,1.9v.7h-.86v-.65a3.22,3.22,0,0,1-1.6-.49l-.06,0,.32-.89.11.06a2.79,2.79,0,0,0,1.48.45c.7,0,1.19-.4,1.19-.95s-.34-.86-1.15-1.19-1.84-.87-1.84-2a1.83,1.83,0,0,1,1.63-1.8v-.68h.85v.62a3.08,3.08,0,0,1,1.35.38l.07.05-.34.89-.09-.06a2.49,2.49,0,0,0-1.31-.35c-.77,0-1,.45-1,.82s.3.73,1.27,1.14C265.47,174.64,266,175.25,266,176.2Z"/><polygon class="cls-21" points="297.55 200.13 257.21 200.13 257.21 190.64 253.11 186.54 297.55 186.54 297.55 200.13"/><line class="cls-20" x1="270.37" y1="190.13" x2="294.09" y2="190.13"/><line class="cls-20" x1="270.37" y1="193.33" x2="294.09" y2="193.33"/><line class="cls-20" x1="270.37" y1="196.53" x2="294.09" y2="196.53"/><line class="cls-22" x1="140.16" y1="191.92" x2="140.16" y2="191.92"/><line class="cls-23" x1="140.16" y1="191.92" x2="142.61" y2="191.92"/><line class="cls-24" x1="147.06" y1="191.92" x2="205.68" y2="191.92"/><line class="cls-22" x1="209.13" y1="191.92" x2="209.13" y2="191.92"/><line class="cls-22" x1="389.62" y1="191.92" x2="389.62" y2="191.92"/><line class="cls-25" x1="389.62" y1="191.92" x2="392.04" y2="191.92"/><line class="cls-26" x1="396.46" y1="191.92" x2="420.41" y2="191.92"/><line class="cls-22" x1="423.83" y1="191.92" x2="423.83" y2="191.92"/><line class="cls-22" x1="541.95" y1="191.92" x2="541.95" y2="191.92"/><line class="cls-27" x1="541.95" y1="191.92" x2="544.11" y2="191.92"/><line class="cls-28" x1="548.27" y1="191.92" x2="570.39" y2="191.92"/><line class="cls-22" x1="573.55" y1="191.92" x2="573.55" y2="191.92"/><path d="M266,194.66a2,2,0,0,1-1.71,1.9v.7h-.86v-.65a3.22,3.22,0,0,1-1.6-.49l-.06-.05.32-.89.11.06a2.79,2.79,0,0,0,1.48.45c.7,0,1.19-.4,1.19-.95s-.34-.86-1.15-1.19-1.84-.87-1.84-2a1.83,1.83,0,0,1,1.63-1.8v-.68h.85v.62a3,3,0,0,1,1.35.38l.07,0-.34.89-.09-.06a2.49,2.49,0,0,0-1.31-.35c-.77,0-1,.44-1,.82s.3.73,1.27,1.14C265.47,193.1,266,193.71,266,194.66Z"/><polygon class="cls-29" points="297.55 218.59 257.21 218.59 257.21 209.1 253.11 205 297.55 205 297.55 218.59"/><line class="cls-20" x1="270.37" y1="208.59" x2="294.09" y2="208.59"/><line class="cls-20" x1="270.37" y1="211.79" x2="294.09" y2="211.79"/><line class="cls-20" x1="270.37" y1="214.99" x2="294.09" y2="214.99"/><path d="M266,213.12a2,2,0,0,1-1.71,1.9v.7h-.86v-.65a3.32,3.32,0,0,1-1.6-.49l-.06-.05.32-.89.11.06a2.79,2.79,0,0,0,1.48.45c.7,0,1.19-.4,1.19-1s-.34-.86-1.15-1.2-1.84-.86-1.84-1.94a1.83,1.83,0,0,1,1.63-1.8v-.68h.85v.62a3,3,0,0,1,1.35.38l.07,0-.34.89-.09-.06a2.49,2.49,0,0,0-1.31-.35c-.77,0-1,.44-1,.82s.3.73,1.27,1.14C265.47,211.56,266,212.17,266,213.12Z"/><path class="cls-30" d="M252.65,193.33A7.27,7.27,0,0,1,251,198a3.48,3.48,0,0,1-.26.3,7.5,7.5,0,0,1-1.81,1.45,7.32,7.32,0,0,1-3.08.92l-.22,0h-.82a7.29,7.29,0,0,1-3.07-.93,7,7,0,0,1-1.81-1.45l-.26-.3a7.31,7.31,0,1,1,13-4.61Z"/><path class="cls-31" d="M250.75,198.25a7.5,7.5,0,0,1-1.81,1.45,7.32,7.32,0,0,1-3.08.92l-.22,0h-.82a7.29,7.29,0,0,1-3.07-.93,7,7,0,0,1-1.81-1.45A3.14,3.14,0,0,1,241.2,197a3.3,3.3,0,0,1,.43-.19l.21-.06.15,0,2.1-.5h3.1l1.51.48.15.05.2.06.44.19A3,3,0,0,1,250.75,198.25Z"/><polygon class="cls-32" points="244.15 194.9 245.34 195.39 246.54 194.9 246.76 195.89 245.34 196.67 243.93 195.89 244.15 194.9"/><polygon class="cls-33" points="245.58 197.54 245.1 197.54 244.48 196.67 246.2 196.67 245.58 197.54"/><path class="cls-34" d="M245.86,200.62l-.22,0h-.82l.28-3.08h.48Z"/><polygon class="cls-35" points="243.93 195.89 245.34 196.67 244.46 197.76 243.62 196.3 243.93 195.89"/><polygon class="cls-35" points="246.76 195.89 245.34 196.67 246.23 197.76 247.22 196.2 246.76 195.89"/><ellipse class="cls-32" cx="242.65" cy="192.68" rx="0.43" ry="0.76"/><ellipse class="cls-32" cx="248.02" cy="192.68" rx="0.43" ry="0.76"/><path class="cls-32" d="M248.1,192.2a4.8,4.8,0,0,1-1.49,3.46,2,2,0,0,1-1.28.53,2,2,0,0,1-1.26-.52,4.79,4.79,0,0,1-1.5-3.47,2.53,2.53,0,0,1,0-.28,3.73,3.73,0,0,1,3.31-1.14,4.51,4.51,0,0,0,1.89,0A3.31,3.31,0,0,1,248.1,192.2Z"/><path d="M242,191.37a2.33,2.33,0,0,1,.52,1.28.18.18,0,0,0,.18.15h0a.17.17,0,0,0,.17-.15,4,4,0,0,1,.14-.77,19.41,19.41,0,0,0,2.79.36,2.27,2.27,0,0,0,1.82-.84,3,3,0,0,1,.17,1.23.17.17,0,0,0,.17.17h0a.16.16,0,0,0,.17-.15,10.69,10.69,0,0,0,0-2.07c-.08-.47,0-1.33-1.89-2.06a2.3,2.3,0,0,0-.45-.12,5.7,5.7,0,0,0-3.34.84,1.46,1.46,0,0,0-.46,2.12Z"/><path class="cls-36" d="M252.65,174.87a7.32,7.32,0,0,1-3.71,6.37,7.35,7.35,0,0,1-3.3.94H245a7.3,7.3,0,0,1-5.36-2.69,7.31,7.31,0,1,1,13-4.61Z"/><path class="cls-35" d="M251,179.49a7.29,7.29,0,0,1-5.37,2.69H245a7.3,7.3,0,0,1-5.36-2.69,2.27,2.27,0,0,1,1.38-1.16l.52-.15,1.71-.48h0l.28-.08h3.48l.27.08h0l.25.07,1.46.42.52.14A2.28,2.28,0,0,1,251,179.49Z"/><path class="cls-37" d="M245,182.17a7.1,7.1,0,0,1-3.29-.94,16.19,16.19,0,0,1-.17-3.06h0l1.71-.47h0S244.06,181.67,245,182.17Z"/><path class="cls-37" d="M248.94,181.24a7.35,7.35,0,0,1-3.3.94c1-.5,1.72-4.5,1.72-4.5h0l.25.07,1.46.4h0A17,17,0,0,1,248.94,181.24Z"/><polygon class="cls-33" points="245.57 178.8 245.12 178.8 244.55 177.99 246.14 177.99 245.57 178.8"/><polygon class="cls-34" points="245.12 178.8 245.57 178.8 245.85 181.41 245.34 181.85 244.84 181.41 245.12 178.8"/><polygon class="cls-31" points="243.77 177.26 245.35 178.1 244.42 179.08 243.49 177.63 243.77 177.26"/><polygon class="cls-31" points="246.92 177.26 245.35 178.1 246.27 179.08 247.2 177.63 246.92 177.26"/><ellipse class="cls-32" cx="242.74" cy="174.89" rx="0.42" ry="0.74"/><ellipse class="cls-32" cx="247.94" cy="174.89" rx="0.42" ry="0.74"/><path class="cls-32" d="M248,174.41a4.33,4.33,0,0,1-1.44,3.2,1.81,1.81,0,0,1-2.47,0,4.36,4.36,0,0,1-1.45-3.21c0-.09-.1-.81-.09-.9a4.84,4.84,0,0,1,3.62-1,4.23,4.23,0,0,0,1.62.1A5.1,5.1,0,0,1,248,174.41Z"/><path d="M242.72,174.47a1.61,1.61,0,0,1,.1-1s.16.09,1,.16a5.91,5.91,0,0,0,2.72-.77,1.66,1.66,0,0,1-.15,1,1.81,1.81,0,0,0,1.28-.89,11.9,11.9,0,0,1,.16,1.53h.22a10.68,10.68,0,0,0,.15-1.64,3,3,0,0,0-.95-2c-.55-.4-1.83-1-3.88,0-1.78.84-1.15,3.07-1,3.64Z"/><path class="cls-32" d="M244.49,176.88s0,0,0,0Z"/><path class="cls-38" d="M252.65,211.79a7.27,7.27,0,0,1-1.64,4.62,3.15,3.15,0,0,1-.25.28h0a7.18,7.18,0,0,1-4.89,2.38H245l-.22,0a7.14,7.14,0,0,1-3.07-.92,7,7,0,0,1-1.81-1.45v0a3.33,3.33,0,0,1-.25-.28,7.31,7.31,0,1,1,13-4.61Z"/><path class="cls-39" d="M250.76,216.69h0a7.18,7.18,0,0,1-4.89,2.38H245l-.22,0a7.14,7.14,0,0,1-3.07-.92,7,7,0,0,1-1.81-1.45v0a2.12,2.12,0,0,1,1.48-1.42l.61-.15.51-.14,1.34-.34h2.95l1.34.34.51.14.61.15A2.11,2.11,0,0,1,250.76,216.69Z"/><polygon class="cls-32" points="244.09 213.54 245.34 214.07 246.59 213.54 246.82 214.62 245.34 216.62 243.87 214.62 244.09 213.54"/><path class="cls-40" d="M245.34,216.62l-1.26-.65c-.44-.12-.48-1-.21-1.35C244.58,214.81,245.24,216,245.34,216.62Z"/><path class="cls-40" d="M245.34,216.62l1.27-.65c.44-.12.48-1,.21-1.35C246.11,214.81,245.45,216,245.34,216.62Z"/><path class="cls-32" d="M248.07,210.75a5.07,5.07,0,0,1-1.47,3.58,1.74,1.74,0,0,1-2.52,0,5.12,5.12,0,0,1-1.48-3.6c0-.1,0-.2,0-.3a3.62,3.62,0,0,1,3.27-1.18,4.09,4.09,0,0,0,1.87,0A3.58,3.58,0,0,1,248.07,210.75Z"/><path d="M248.5,212a4.09,4.09,0,0,1-1.41,2.14,6,6,0,0,0,.34-4.42,3.5,3.5,0,0,1-2.22.2,2.24,2.24,0,0,0-2,.51,1.65,1.65,0,0,0-.45,1.57,8.17,8.17,0,0,0,.93,2.06c-1-.4-1.63-2-1.62-3.39a3.24,3.24,0,0,1,2.39-3.49,3.5,3.5,0,0,1,1.17-.08,3.22,3.22,0,0,1,2.65,2.1A5.18,5.18,0,0,1,248.5,212Z"/><circle class="cls-35" cx="245.34" cy="217.11" r="0.15"/><circle class="cls-35" cx="245.34" cy="217.86" r="0.15"/><circle class="cls-35" cx="245.34" cy="218.6" r="0.15"/><polygon class="cls-41" points="360.26 190.59 319.92 190.59 319.92 181.1 315.82 177 360.26 177 360.26 190.59"/><line class="cls-20" x1="333.08" y1="180.59" x2="356.8" y2="180.59"/><line class="cls-20" x1="333.08" y1="183.79" x2="356.8" y2="183.79"/><line class="cls-20" x1="333.08" y1="186.99" x2="356.8" y2="186.99"/><path d="M328.69,185.12A2,2,0,0,1,327,187v.7h-.87v-.66a3.25,3.25,0,0,1-1.6-.48l-.06-.05.33-.9.11.07a2.73,2.73,0,0,0,1.48.44c.7,0,1.18-.39,1.18-.95s-.33-.85-1.15-1.19-1.83-.86-1.83-1.94a1.83,1.83,0,0,1,1.62-1.81v-.67h.86v.62a2.87,2.87,0,0,1,1.35.38l.06,0-.34.88-.09,0a2.42,2.42,0,0,0-1.3-.36c-.77,0-1,.45-1,.83s.29.73,1.27,1.14C328.17,183.56,328.69,184.17,328.69,185.12Z"/><polygon class="cls-42" points="360.26 209.04 319.92 209.04 319.92 199.56 315.82 195.46 360.26 195.46 360.26 209.04"/><line class="cls-20" x1="333.08" y1="199.05" x2="356.8" y2="199.05"/><line class="cls-20" x1="333.08" y1="202.25" x2="356.8" y2="202.25"/><line class="cls-20" x1="333.08" y1="205.45" x2="356.8" y2="205.45"/><path d="M328.69,203.58a2,2,0,0,1-1.7,1.9v.7h-.87v-.66a3.25,3.25,0,0,1-1.6-.48l-.06,0,.33-.9.11.07a2.73,2.73,0,0,0,1.48.44c.7,0,1.18-.39,1.18-.95s-.33-.85-1.15-1.19-1.83-.86-1.83-2a1.83,1.83,0,0,1,1.62-1.8V198h.86v.62a2.87,2.87,0,0,1,1.35.38l.06,0-.34.89-.09-.05a2.42,2.42,0,0,0-1.3-.36c-.77,0-1,.45-1,.83s.29.73,1.27,1.14C328.17,202,328.69,202.63,328.69,203.58Z"/><path class="cls-43" d="M315.36,183.79a7.33,7.33,0,0,1-1.64,4.62,3.58,3.58,0,0,1-.26.29,7,7,0,0,1-1.81,1.45,7.24,7.24,0,0,1-3.08.93h-.82l-.22,0a7.18,7.18,0,0,1-3.08-.92,7,7,0,0,1-1.8-1.45l-.26-.3a7.31,7.31,0,1,1,13-4.61Z"/><path class="cls-31" d="M313.46,188.7a7,7,0,0,1-1.81,1.45,7.24,7.24,0,0,1-3.08.93h-.82l-.22,0a7.18,7.18,0,0,1-3.08-.92,7,7,0,0,1-1.8-1.45,3,3,0,0,1,1.26-1.27,3.3,3.3,0,0,1,.43-.19l.2-.06.16,0,2.1-.51h3.09l1.51.49.16.05.2.06.44.19A3.14,3.14,0,0,1,313.46,188.7Z"/><polygon class="cls-32" points="306.85 185.36 308.05 185.84 309.25 185.36 309.46 186.35 308.05 187.13 306.64 186.35 306.85 185.36"/><path class="cls-33" d="M308.29,188a.42.42,0,0,1-.49,0l-.61-.88h1.72Z"/><path class="cls-34" d="M308.57,191.08h-.82l-.22,0,.27-3.07h.49Z"/><polygon class="cls-35" points="306.64 186.35 308.05 187.13 307.16 188.22 306.32 186.76 306.64 186.35"/><polygon class="cls-35" points="309.46 186.35 308.05 187.13 308.94 188.22 309.93 186.66 309.46 186.35"/><ellipse class="cls-32" cx="305.36" cy="183.14" rx="0.43" ry="0.76"/><ellipse class="cls-32" cx="310.72" cy="183.14" rx="0.43" ry="0.76"/><path class="cls-32" d="M310.81,182.66a4.84,4.84,0,0,1-1.49,3.46,1.81,1.81,0,0,1-2.55,0,4.79,4.79,0,0,1-1.5-3.47c0-.1,0-.19,0-.29a3.74,3.74,0,0,1,3.32-1.13,4.52,4.52,0,0,0,1.89,0A3.31,3.31,0,0,1,310.81,182.66Z"/><path d="M304.72,181.83a2.48,2.48,0,0,1,.52,1.28.17.17,0,0,0,.17.15h0a.16.16,0,0,0,.17-.15,4.77,4.77,0,0,1,.15-.77,19.41,19.41,0,0,0,2.79.36,2.28,2.28,0,0,0,1.81-.84,3,3,0,0,1,.18,1.23.17.17,0,0,0,.17.17h0a.17.17,0,0,0,.17-.16,10.6,10.6,0,0,0,0-2.06c-.08-.47,0-1.34-1.9-2.06a2.4,2.4,0,0,0-.44-.12,5.7,5.7,0,0,0-3.34.84,1.47,1.47,0,0,0-.47,2.12Z"/><path class="cls-44" d="M315.36,202.25a7.33,7.33,0,0,1-1.64,4.62c-.08.09-.16.19-.25.28h0a7,7,0,0,1-1.81,1.45,7.24,7.24,0,0,1-3.08.93h-.82l-.22,0a7.18,7.18,0,0,1-3.08-.92,7,7,0,0,1-1.8-1.45s0,0,0,0a2.18,2.18,0,0,1-.25-.28,7.31,7.31,0,1,1,13-4.61Z"/><path class="cls-39" d="M313.47,207.15h0a7,7,0,0,1-1.81,1.45,7.24,7.24,0,0,1-3.08.93h-.82l-.22,0a7.18,7.18,0,0,1-3.08-.92,7,7,0,0,1-1.8-1.45s0,0,0,0a2.12,2.12,0,0,1,1.48-1.42l.6-.15.52-.14,1.34-.35h2.94l1.34.35.52.14.6.15A2.11,2.11,0,0,1,313.47,207.15Z"/><polygon class="cls-32" points="306.8 204 308.05 204.53 309.3 204 309.52 205.08 308.05 207.08 306.58 205.08 306.8 204"/><path class="cls-40" d="M308.05,207.08l-1.27-.65c-.43-.13-.48-1-.2-1.35C307.28,205.27,308,206.5,308.05,207.08Z"/><path class="cls-40" d="M308.05,207.08l1.27-.65c.44-.13.48-1,.2-1.35C308.82,205.27,308.15,206.5,308.05,207.08Z"/><path class="cls-32" d="M310.78,201.2a5.13,5.13,0,0,1-1.47,3.59,1.73,1.73,0,0,1-2.52,0,5.09,5.09,0,0,1-1.49-3.6c0-.1,0-.19,0-.29a3.63,3.63,0,0,1,3.28-1.18,4.1,4.1,0,0,0,1.87,0A3.57,3.57,0,0,1,310.78,201.2Z"/><path d="M311.21,202.49a4.16,4.16,0,0,1-1.41,2.14,6.08,6.08,0,0,0,.34-4.42,3.5,3.5,0,0,1-2.22.2,2.27,2.27,0,0,0-2,.51,1.69,1.69,0,0,0-.45,1.56,8,8,0,0,0,.94,2.07c-1.05-.4-1.64-2-1.62-3.39a3.23,3.23,0,0,1,2.38-3.49,3.28,3.28,0,0,1,1.17-.08,3.2,3.2,0,0,1,2.65,2.1A5.25,5.25,0,0,1,311.21,202.49Z"/><circle class="cls-35" cx="308.05" cy="207.57" r="0.15"/><circle class="cls-35" cx="308.05" cy="208.31" r="0.15"/><circle class="cls-35" cx="308.05" cy="209.06" r="0.15"/><path class="cls-45" d="M252.65,193.33A7.27,7.27,0,0,1,251,198a3.48,3.48,0,0,1-.26.3,7.5,7.5,0,0,1-1.81,1.45,7.32,7.32,0,0,1-3.08.92l-.22,0h-.82a7.29,7.29,0,0,1-3.07-.93,7,7,0,0,1-1.81-1.45l-.26-.3a7.31,7.31,0,1,1,13-4.61Z"/><path class="cls-45" d="M252.65,174.87a7.32,7.32,0,0,1-3.71,6.37,7.35,7.35,0,0,1-3.3.94H245a7.3,7.3,0,0,1-5.36-2.69,7.31,7.31,0,1,1,13-4.61Z"/><path class="cls-45" d="M252.65,211.79a7.27,7.27,0,0,1-1.64,4.62,3.15,3.15,0,0,1-.25.28h0a7.18,7.18,0,0,1-4.89,2.38H245l-.22,0a7.14,7.14,0,0,1-3.07-.92,7,7,0,0,1-1.81-1.45v0a3.33,3.33,0,0,1-.25-.28,7.31,7.31,0,1,1,13-4.61Z"/><path class="cls-45" d="M315.36,183.79a7.33,7.33,0,0,1-1.64,4.62,3.58,3.58,0,0,1-.26.29,7,7,0,0,1-1.81,1.45,7.24,7.24,0,0,1-3.08.93h-.82l-.22,0a7.18,7.18,0,0,1-3.08-.92,7,7,0,0,1-1.8-1.45l-.26-.3a7.31,7.31,0,1,1,13-4.61Z"/><path class="cls-45" d="M315.36,202.25a7.33,7.33,0,0,1-1.64,4.62c-.08.09-.16.19-.25.28h0a7,7,0,0,1-1.81,1.45,7.24,7.24,0,0,1-3.08.93h-.82l-.22,0a7.18,7.18,0,0,1-3.08-.92,7,7,0,0,1-1.8-1.45s0,0,0,0a2.18,2.18,0,0,1-.25-.28,7.31,7.31,0,1,1,13-4.61Z"/><path class="cls-17" d="M321.36,244.53l-2.71-4a34.28,34.28,0,0,1-10.84-5.45c-4.44-3.66-7.67-10.49-7.67-10.49s-2.46-5.39-6.29-7.79-7.31-6.95-6.65-9.34,3.53-1.8,6.71-.72a21.72,21.72,0,0,1,6,3.53l6,6.71-1.06-1.18s-.68-5.35-2.89-6.19-12.65,1.38-15.7,1.08-5-2.57-2.22-3.83c2.2-1,9.38-3.58,12.41-4.67a6,6,0,0,1,2.82-.29c2.2.31,6.42.93,9.28,1.48,4.12.8,9.48,1.92,10.92,3s6.83,11.94,6.83,11.94l5.43,12.18"/><path class="cls-17" d="M300.14,224.58s-2.46-5.39-6.29-7.79-7.31-6.95-6.65-9.34,3.53-1.8,6.71-.72a21.72,21.72,0,0,1,6,3.53l6,6.71"/><polyline class="cls-46" points="339.05 235.43 332.88 228.8 317.81 242.97 329.81 262.35"/><polygon class="cls-47" points="526.2 176.84 459.94 176.84 459.94 158.73 452.11 150.9 526.2 150.9 526.2 176.84"/><line class="cls-48" x1="485.07" y1="157.76" x2="519.59" y2="157.76"/><line class="cls-48" x1="485.07" y1="163.87" x2="519.59" y2="163.87"/><line class="cls-48" x1="485.07" y1="169.99" x2="519.59" y2="169.99"/><path d="M476.69,166.4a3.72,3.72,0,0,1-3.25,3.63v1.35h-1.65v-1.26a6.14,6.14,0,0,1-3.05-.93l-.12-.09.62-1.71.21.12a5.15,5.15,0,0,0,2.83.86c1.33,0,2.26-.76,2.26-1.82s-.64-1.64-2.2-2.27c-1.82-.71-3.5-1.66-3.5-3.72a3.5,3.5,0,0,1,3.1-3.44v-1.29h1.64V157a5.57,5.57,0,0,1,2.57.72l.13.09-.65,1.69-.18-.1a4.66,4.66,0,0,0-2.49-.68c-1.46,0-2,.86-2,1.58,0,.89.56,1.39,2.42,2.17C475.7,163.42,476.69,164.59,476.69,166.4Z"/><path class="cls-49" d="M451.24,163.87a13.94,13.94,0,0,1-3.14,8.82c-.15.19-.32.38-.49.56a13.9,13.9,0,0,1-9.34,4.54l-.42,0h-.56a5.82,5.82,0,0,1-.59,0,3,3,0,0,1-.42,0,13.85,13.85,0,0,1-9.32-4.54c-.17-.18-.33-.37-.49-.56a14,14,0,1,1,24.77-8.81Z"/><path class="cls-31" d="M447.61,173.25a13.9,13.9,0,0,1-9.34,4.54l-.42,0h-.56a5.82,5.82,0,0,1-.59,0,3,3,0,0,1-.42,0,13.85,13.85,0,0,1-9.32-4.54,5.83,5.83,0,0,1,2.41-2.41,5.44,5.44,0,0,1,.82-.37,3,3,0,0,1,.4-.11l.29-.07,4-1h5.91l2.88.93.3.1a2.38,2.38,0,0,1,.38.11,6.3,6.3,0,0,1,.84.37A5.85,5.85,0,0,1,447.61,173.25Z"/><polygon class="cls-32" points="434.99 166.87 437.28 167.79 439.57 166.87 439.98 168.75 437.28 170.24 434.59 168.75 434.99 166.87"/><path class="cls-33" d="M437.74,171.91a.81.81,0,0,1-.93,0l-1.18-1.67h3.29Z"/><path class="cls-34" d="M438.27,177.79l-.42,0h-.56a5.82,5.82,0,0,1-.59,0,3,3,0,0,1-.42,0l.53-5.87h.93Z"/><polygon class="cls-35" points="434.59 168.75 437.28 170.24 435.59 172.32 433.99 169.54 434.59 168.75"/><polygon class="cls-35" points="439.98 168.75 437.28 170.24 438.98 172.32 440.87 169.35 439.98 168.75"/><ellipse class="cls-32" cx="442.38" cy="162.62" rx="0.83" ry="1.45"/><path class="cls-32" d="M442.54,161.71a9.19,9.19,0,0,1-2.83,6.61,3.74,3.74,0,0,1-2.45,1,3.79,3.79,0,0,1-2.42-1,9.17,9.17,0,0,1-2.86-6.63c0-.18,0-.37,0-.54a7.12,7.12,0,0,1,6.32-2.18,8.62,8.62,0,0,0,3.61-.07A6.27,6.27,0,0,1,442.54,161.71Z"/><path d="M430.92,160.13a4.67,4.67,0,0,1,1,2.43.33.33,0,0,0,.32.3h0a.33.33,0,0,0,.33-.29,9.11,9.11,0,0,1,.27-1.47,36.52,36.52,0,0,0,5.34.68,4.3,4.3,0,0,0,3.46-1.6,5.74,5.74,0,0,1,.33,2.35.33.33,0,0,0,.33.33h.05a.33.33,0,0,0,.33-.3,21.47,21.47,0,0,0,0-3.95c-.16-.9,0-2.54-3.62-3.93a5.06,5.06,0,0,0-.85-.22c-2.7-.39-5.07.95-6.38,1.6a2.8,2.8,0,0,0-.89,4.05Z"/><path class="cls-45" d="M451.24,163.87a13.94,13.94,0,0,1-3.14,8.82c-.15.19-.32.38-.49.56a13.9,13.9,0,0,1-9.34,4.54l-.42,0h-.56a5.82,5.82,0,0,1-.59,0,3,3,0,0,1-.42,0,13.85,13.85,0,0,1-9.32-4.54c-.17-.18-.33-.37-.49-.56a14,14,0,1,1,24.77-8.81Z"/><polygon class="cls-50" points="526.2 245.12 459.94 245.12 459.94 227.01 452.11 219.18 526.2 219.18 526.2 245.12"/><line class="cls-48" x1="485.07" y1="226.04" x2="519.59" y2="226.04"/><line class="cls-48" x1="485.07" y1="232.15" x2="519.59" y2="232.15"/><line class="cls-48" x1="485.07" y1="238.26" x2="519.59" y2="238.26"/><path d="M476.69,234.68a3.72,3.72,0,0,1-3.25,3.63v1.35h-1.65V238.4a6.14,6.14,0,0,1-3.05-.93l-.12-.09.62-1.71.21.12a5.22,5.22,0,0,0,2.83.85c1.33,0,2.26-.75,2.26-1.81s-.64-1.64-2.2-2.27c-1.82-.71-3.5-1.66-3.5-3.72a3.5,3.5,0,0,1,3.1-3.44v-1.29h1.64v1.18a5.7,5.7,0,0,1,2.57.73l.13.09-.65,1.69-.18-.1A4.66,4.66,0,0,0,473,227c-1.46,0-2,.86-2,1.58,0,.89.56,1.39,2.42,2.17C475.7,231.7,476.69,232.87,476.69,234.68Z"/><path class="cls-51" d="M451.24,232.15A13.89,13.89,0,0,1,448.1,241a6.19,6.19,0,0,1-.47.55l0,0a13.85,13.85,0,0,1-9.34,4.53c-.14,0-.28,0-.42,0h-.56a5.82,5.82,0,0,1-.59,0l-.42,0a13.85,13.85,0,0,1-9.32-4.54l0,0c-.17-.17-.32-.35-.47-.53a14,14,0,1,1,24.77-8.81Z"/><path class="cls-39" d="M447.63,241.51l0,0a13.85,13.85,0,0,1-9.34,4.53c-.14,0-.28,0-.42,0h-.56a5.82,5.82,0,0,1-.59,0l-.42,0a13.85,13.85,0,0,1-9.32-4.54l0,0a4,4,0,0,1,2.83-2.71l1.16-.3,1-.26,2.56-.66h5.63l2.56.66,1,.26,1.16.3A4,4,0,0,1,447.63,241.51Z"/><polygon class="cls-32" points="434.9 235.5 437.28 236.51 439.67 235.5 440.09 237.56 437.28 241.37 434.47 237.56 434.9 235.5"/><path class="cls-40" d="M437.28,241.37l-2.42-1.24c-.83-.24-.92-1.88-.39-2.57C435.82,237.91,437.09,240.26,437.28,241.37Z"/><path class="cls-40" d="M437.28,241.37l2.42-1.24c.84-.24.92-1.88.39-2.57C438.75,237.91,437.47,240.26,437.28,241.37Z"/><path class="cls-32" d="M442.48,230.15a9.75,9.75,0,0,1-2.8,6.85,3.33,3.33,0,0,1-4.81,0,9.77,9.77,0,0,1-2.83-6.88,5.15,5.15,0,0,1,0-.56,6.87,6.87,0,0,1,6.25-2.25,7.9,7.9,0,0,0,3.57-.08A6.68,6.68,0,0,1,442.48,230.15Z"/><path d="M443.31,232.61s-.89,3.08-2.69,4.08a11.51,11.51,0,0,0,.64-8.44,6.63,6.63,0,0,1-4.23.38,4.35,4.35,0,0,0-3.81,1,3.2,3.2,0,0,0-.86,3,15.48,15.48,0,0,0,1.79,3.93c-2-.75-3.13-3.85-3.1-6.46a6.19,6.19,0,0,1,4.55-6.67,6.48,6.48,0,0,1,2.24-.15,6.11,6.11,0,0,1,5.06,4A10,10,0,0,1,443.31,232.61Z"/><circle class="cls-35" cx="437.28" cy="242.3" r="0.29"/><circle class="cls-35" cx="437.28" cy="243.73" r="0.29"/><circle class="cls-35" cx="437.28" cy="245.15" r="0.29"/><path class="cls-45" d="M451.24,232.15A13.89,13.89,0,0,1,448.1,241a6.19,6.19,0,0,1-.47.55l0,0a13.85,13.85,0,0,1-9.34,4.53c-.14,0-.28,0-.42,0h-.56a5.82,5.82,0,0,1-.59,0l-.42,0a13.85,13.85,0,0,1-9.32-4.54l0,0c-.17-.17-.32-.35-.47-.53a14,14,0,1,1,24.77-8.81Z"/><polygon class="cls-52" points="485.71 196.34 482.13 196.34 482.13 207.82 478.11 207.82 478.11 196.34 474.53 196.34 480.12 187.5 485.71 196.34"/><polygon class="cls-53" points="489.4 198.98 492.98 198.98 492.98 187.5 497.01 187.5 497.01 198.98 500.58 198.98 494.99 207.82 489.4 198.98"/><polygon class="cls-54" points="689.86 204.79 623.6 204.79 623.6 186.68 615.77 178.84 689.86 178.84 689.86 204.79"/><line class="cls-48" x1="648.73" y1="185.7" x2="683.25" y2="185.7"/><line class="cls-48" x1="648.73" y1="191.82" x2="683.25" y2="191.82"/><line class="cls-48" x1="648.73" y1="197.93" x2="683.25" y2="197.93"/><path d="M640.35,194.35a3.73,3.73,0,0,1-3.24,3.63v1.34h-1.66v-1.25a6.14,6.14,0,0,1-3.05-.93l-.12-.09.62-1.71.21.12a5.22,5.22,0,0,0,2.83.85c1.33,0,2.26-.75,2.26-1.81s-.64-1.64-2.2-2.28c-1.82-.7-3.5-1.65-3.5-3.72a3.49,3.49,0,0,1,3.1-3.43v-1.29h1.64V185a5.7,5.7,0,0,1,2.57.73l.13.08-.65,1.7-.18-.1a4.66,4.66,0,0,0-2.49-.68c-1.46,0-2,.85-2,1.58s.56,1.39,2.42,2.17C639.36,191.37,640.35,192.53,640.35,194.35Z"/><path class="cls-55" d="M614.9,191.81a13.9,13.9,0,0,1-3.14,8.82,6.44,6.44,0,0,1-.49.57,13.66,13.66,0,0,1-3.46,2.77,13.86,13.86,0,0,1-5.88,1.76c-.14,0-.28,0-.42,0H601c-.19,0-.39,0-.59,0l-.42,0a13.45,13.45,0,0,1-5.86-1.76,13.66,13.66,0,0,1-3.46-2.77c-.17-.18-.33-.38-.48-.57a13.78,13.78,0,0,1-3.15-8.81,14,14,0,0,1,27.91,0Z"/><path class="cls-31" d="M611.27,201.2a13.66,13.66,0,0,1-3.46,2.77,13.86,13.86,0,0,1-5.88,1.76c-.14,0-.28,0-.42,0H601c-.19,0-.39,0-.59,0l-.42,0a13.45,13.45,0,0,1-5.86-1.76,13.66,13.66,0,0,1-3.46-2.77,5.85,5.85,0,0,1,2.41-2.42,5.38,5.38,0,0,1,.82-.36,3,3,0,0,1,.4-.12l.29-.06,4-1h5.91l2.88.93.3.09a2.4,2.4,0,0,1,.38.12,6.24,6.24,0,0,1,.84.36A5.88,5.88,0,0,1,611.27,201.2Z"/><polygon class="cls-32" points="598.65 194.81 600.94 195.74 603.23 194.81 603.64 196.7 600.94 198.18 598.25 196.7 598.65 194.81"/><path class="cls-33" d="M601.4,199.86a.81.81,0,0,1-.93,0l-1.18-1.68h3.29Z"/><path class="cls-34" d="M601.93,205.73c-.14,0-.28,0-.42,0H601c-.19,0-.39,0-.59,0l-.42,0,.53-5.86h.93Z"/><polygon class="cls-35" points="598.25 196.7 600.94 198.18 599.25 200.27 597.65 197.48 598.25 196.7"/><polygon class="cls-35" points="603.64 196.7 600.94 198.18 602.64 200.27 604.53 197.29 603.64 196.7"/><ellipse class="cls-32" cx="606.05" cy="190.57" rx="0.83" ry="1.45"/><path class="cls-32" d="M606.2,189.65a9.2,9.2,0,0,1-2.83,6.62,3.49,3.49,0,0,1-4.87,0,9.19,9.19,0,0,1-2.86-6.64c0-.18,0-.36,0-.54a7.13,7.13,0,0,1,6.32-2.17,8.61,8.61,0,0,0,3.61-.07A6.19,6.19,0,0,1,606.2,189.65Z"/><path d="M594.58,188.07a4.74,4.74,0,0,1,1,2.44.33.33,0,0,0,.32.3h0a.33.33,0,0,0,.33-.29,8.15,8.15,0,0,1,.28-1.48,37.2,37.2,0,0,0,5.33.69,4.32,4.32,0,0,0,3.46-1.61,5.74,5.74,0,0,1,.33,2.35.34.34,0,0,0,.33.34H606a.32.32,0,0,0,.32-.3,21.47,21.47,0,0,0,0-3.95c-.16-.9,0-2.55-3.62-3.93a4.25,4.25,0,0,0-.85-.22c-2.7-.4-5.06,1-6.38,1.6a2.79,2.79,0,0,0-.89,4.05Z"/><path class="cls-45" d="M614.9,191.81a13.9,13.9,0,0,1-3.14,8.82,6.44,6.44,0,0,1-.49.57,13.66,13.66,0,0,1-3.46,2.77,13.86,13.86,0,0,1-5.88,1.76c-.14,0-.28,0-.42,0H601c-.19,0-.39,0-.59,0l-.42,0a13.45,13.45,0,0,1-5.86-1.76,13.66,13.66,0,0,1-3.46-2.77c-.17-.18-.33-.38-.48-.57a13.78,13.78,0,0,1-3.15-8.81,14,14,0,0,1,27.91,0Z"/><circle class="cls-56" cx="688.81" cy="175.21" r="8.42"/><polyline class="cls-57" points="692.54 172.07 686.56 178.06 685.07 176.57"/></svg>