<svg id="Layer_1" data-name="Layer 1" xmlns="http://www.w3.org/2000/svg" xmlns:xlink="http://www.w3.org/1999/xlink" viewBox="0 0 711.1 426.7"><defs><style>.cls-1{fill:#9988c0;}.cls-2{fill:#12122d;}.cls-3{fill:#202258;}.cls-4,.cls-5,.cls-9{fill:#fff;}.cls-14,.cls-17,.cls-19,.cls-20,.cls-21,.cls-35,.cls-4{stroke:#000;}.cls-11,.cls-12,.cls-14,.cls-17,.cls-19,.cls-20,.cls-21,.cls-4,.cls-5,.cls-6,.cls-7{stroke-linecap:round;}.cls-11,.cls-12,.cls-14,.cls-17,.cls-4,.cls-5,.cls-6,.cls-7{stroke-linejoin:round;}.cls-11,.cls-12,.cls-32,.cls-33,.cls-5,.cls-51{stroke:#010101;}.cls-15,.cls-17,.cls-19,.cls-20,.cls-21,.cls-35,.cls-51,.cls-6,.cls-7{fill:none;}.cls-6,.cls-7{stroke:#c8cdd8;}.cls-6{stroke-width:2px;}.cls-19,.cls-20,.cls-21,.cls-7{stroke-width:3px;}.cls-11,.cls-8{fill:#2b6bb4;}.cls-10,.cls-14{fill:#e5e5e5;}.cls-12{fill:#88c5ec;}.cls-13{fill:#efefef;}.cls-16{fill:url(#New_Gradient_Swatch);}.cls-18{fill:url(#New_Gradient_Swatch-2);}.cls-19,.cls-20,.cls-21,.cls-32,.cls-33,.cls-35,.cls-51{stroke-miterlimit:10;}.cls-20{stroke-dasharray:0 7.18;}.cls-21{stroke-dasharray:0 0 0 7.18;}.cls-22{fill:#23221c;}.cls-23{fill:#f6f6f6;}.cls-24{fill:url(#New_Gradient_Swatch_copy);}.cls-25{fill:url(#New_Gradient_Swatch_copy-2);}.cls-26{fill:#fb8a78;}.cls-27{fill:#f7f5f6;}.cls-28{fill:#ff8976;}.cls-29{fill:url(#New_Gradient_Swatch-3);}.cls-30{fill:url(#New_Gradient_Swatch-4);}.cls-31{fill:#f8826f;}.cls-32{fill:url(#New_Gradient_Swatch-5);}.cls-33{fill:url(#New_Gradient_Swatch-6);}.cls-34{fill:url(#linear-gradient);}.cls-35{stroke-width:0.75px;}.cls-36{fill:url(#linear-gradient-2);}.cls-37{fill:url(#linear-gradient-3);}.cls-38{fill:url(#New_Gradient_Swatch-7);}.cls-39{fill:#f2f2f2;}.cls-40{fill:#333;}.cls-41{fill:#4d4d4d;}.cls-42{fill:#e6e6e6;}.cls-43{fill:url(#New_Gradient_Swatch-8);}.cls-44{fill:#393c3d;}.cls-45{fill:url(#New_Gradient_Swatch-9);}.cls-46{fill:#7562af;}.cls-47{fill:url(#linear-gradient-4);}.cls-48{fill:url(#linear-gradient-5);}.cls-49{fill:url(#New_Gradient_Swatch-10);}.cls-50{fill:url(#New_Gradient_Swatch-11);}.cls-52{fill:#eacf34;}</style><linearGradient id="New_Gradient_Swatch" x1="28.02" y1="265.04" x2="64.68" y2="265.04" gradientUnits="userSpaceOnUse"><stop offset="0.01" stop-color="#4ba5dc"/><stop offset="1" stop-color="#405daa"/></linearGradient><linearGradient id="New_Gradient_Swatch-2" x1="157.9" y1="266.25" x2="194.36" y2="266.25" xlink:href="#New_Gradient_Swatch"/><linearGradient id="New_Gradient_Swatch_copy" x1="287.32" y1="179.81" x2="306.85" y2="179.81" gradientUnits="userSpaceOnUse"><stop offset="0.01" stop-color="#ffdb59"/><stop offset="1" stop-color="#dce11f"/></linearGradient><linearGradient id="New_Gradient_Swatch_copy-2" x1="260.26" y1="182.2" x2="297.78" y2="182.2" xlink:href="#New_Gradient_Swatch_copy"/><linearGradient id="New_Gradient_Swatch-3" x1="317.92" y1="176.61" x2="350.58" y2="176.61" xlink:href="#New_Gradient_Swatch"/><linearGradient id="New_Gradient_Swatch-4" x1="349.47" y1="172.6" x2="392.04" y2="172.6" xlink:href="#New_Gradient_Swatch"/><linearGradient id="New_Gradient_Swatch-5" x1="501.3" y1="198.2" x2="665.1" y2="198.2" xlink:href="#New_Gradient_Swatch"/><linearGradient id="New_Gradient_Swatch-6" x1="483.32" y1="259.24" x2="683.08" y2="259.24" xlink:href="#New_Gradient_Swatch"/><linearGradient id="linear-gradient" x1="532.77" y1="170.8" x2="580.55" y2="170.8" xlink:href="#New_Gradient_Swatch_copy"/><linearGradient id="linear-gradient-2" x1="532.77" y1="190.65" x2="580.55" y2="190.65" xlink:href="#New_Gradient_Swatch_copy"/><linearGradient id="linear-gradient-3" x1="532.77" y1="210.49" x2="580.55" y2="210.49" xlink:href="#New_Gradient_Swatch_copy"/><linearGradient id="New_Gradient_Swatch-7" x1="516.57" y1="190.65" x2="532.28" y2="190.65" xlink:href="#New_Gradient_Swatch"/><linearGradient id="New_Gradient_Swatch-8" x1="516.57" y1="170.8" x2="532.28" y2="170.8" xlink:href="#New_Gradient_Swatch"/><linearGradient id="New_Gradient_Swatch-9" x1="516.57" y1="210.49" x2="532.28" y2="210.49" xlink:href="#New_Gradient_Swatch"/><linearGradient id="linear-gradient-4" x1="600.19" y1="180.39" x2="647.97" y2="180.39" xlink:href="#New_Gradient_Swatch_copy"/><linearGradient id="linear-gradient-5" x1="600.19" y1="200.23" x2="647.97" y2="200.23" xlink:href="#New_Gradient_Swatch_copy"/><linearGradient id="New_Gradient_Swatch-10" x1="583.98" y1="180.39" x2="599.7" y2="180.39" xlink:href="#New_Gradient_Swatch"/><linearGradient id="New_Gradient_Swatch-11" x1="583.98" y1="200.23" x2="599.7" y2="200.23" xlink:href="#New_Gradient_Swatch"/></defs><path class="cls-1" d="M353.06,284s-10.37,2.93-15.3,8.13c-1.59,1.68-.28,3.07,2,3.07h22.33a3,3,0,0,0,3-3.18l-.23-4.27C361.37,283,357.44,281.5,353.06,284Z"/><path class="cls-2" d="M351.89,195.16c-2.48,13.39-3.23,23.07-2.42,40,0,0,2.76,11.63,3.14,20s2.12,22.76.45,28.83l3.69-.45s3.57,4.61,8.13,4.51V275.79s4.62-6.87,2.06-24-2.86-25-2.86-25Z"/><path class="cls-1" d="M380.8,284s-9.79,3.17-14.4,8c-1.5,1.58-.27,2.78,1.91,2.78H389.2a2.82,2.82,0,0,0,2.81-3l-.21-4C388.48,283.34,384.9,281.63,380.8,284Z"/><path class="cls-3" d="M351.44,193.19s-.1,12.59,1,17.35,9,27.88,9,27.88,2.33,6.79,4.56,11.45,9,18,11.75,27.84a2,2,0,0,1-.69,2.18c-1.16.89.46,2.61,1,2.71s.58,2.31.58,2.31,2.43-1.47,4.41,0,1.11,2.88,4.73,3.06,4,0,4,0a123.7,123.7,0,0,0-2.17-14.9c-1.69-7.06-6.11-21.94-6.11-21.94A40.36,40.36,0,0,0,378.43,239l-1.36-44.9C369.33,194.15,366.25,196.37,351.44,193.19Z"/><path class="cls-4" d="M75,239s1.82,1.42,3.14,1.37,6.38-8.24,6.38-8.24l-12.2-4.32"/><rect class="cls-5" x="72.27" y="141.67" width="75.73" height="90.48"/><rect class="cls-6" x="80.51" y="159.09" width="14.29" height="14.04"/><line class="cls-7" x1="100.99" y1="162.15" x2="138.54" y2="162.15"/><line class="cls-7" x1="138.54" y1="170.07" x2="100.99" y2="170.07"/><line class="cls-7" x1="100.99" y1="183.18" x2="138.54" y2="183.18"/><line class="cls-7" x1="138.54" y1="191.1" x2="100.99" y2="191.1"/><line class="cls-7" x1="100.99" y1="204.2" x2="138.54" y2="204.2"/><line class="cls-7" x1="138.54" y1="212.12" x2="100.99" y2="212.12"/><polygon class="cls-8" points="96.73 159.56 86.59 169.61 83.31 166.39 84.82 164.88 86.59 166.58 95.22 158.04 96.73 159.56"/><rect class="cls-6" x="80.51" y="180.12" width="14.29" height="14.04"/><polygon class="cls-8" points="96.73 180.58 86.59 190.63 83.31 187.42 84.82 185.91 86.59 187.61 95.22 179.07 96.73 180.58"/><rect class="cls-6" x="80.51" y="201.14" width="14.29" height="14.04"/><polygon class="cls-8" points="96.73 201.61 86.59 211.66 83.31 208.45 84.82 206.93 86.59 208.64 95.22 200.1 96.73 201.61"/><path class="cls-9" d="M175.82,252.24l-13.75,12.57L140.37,239l-6.17-6.71a7.07,7.07,0,0,1-1.85-4.56v-.06a39.69,39.69,0,0,0-.92-5.84s.27-2.36,3.54-1.3c2.65.86,5.23,5.41,6.12,7.13a7.15,7.15,0,0,0,.54.88c.1.14.2.28.31.41a23.08,23.08,0,0,0,3.58,3.36,6.83,6.83,0,0,0,3.49,1.41,5.3,5.3,0,0,0,4.74-2c3-3.58-.45-5.73-.45-5.73s-3.77-4.11-11.29-6c-.33-.09-.66-.16-1-.24-6.48-1.39-8.28-5.86-5.69-6.47S149.38,216,149.38,216a5.49,5.49,0,0,1,2.35-1.74,5.37,5.37,0,0,1,3.65,0l15.81,7.59a4.71,4.71,0,0,1,2.62,4.86c-.58,4.38-1.52,11.95-1.56,16.29C172.18,249.38,175.82,252.24,175.82,252.24Z"/><path class="cls-10" d="M155.44,232.28a7,7,0,0,1-5.06,2.47,7.46,7.46,0,0,1-5.2-1.7,17.9,17.9,0,0,1-3.55-4.51c.1.14.2.28.31.41a23.08,23.08,0,0,0,3.58,3.36,6.83,6.83,0,0,0,3.49,1.41,5.3,5.3,0,0,0,4.74-2c3-3.58-.45-5.73-.45-5.73s-3.77-4.11-11.29-6c8.68,1.85,13,6.19,13,6.19S158.59,228.48,155.44,232.28Z"/><polyline class="cls-10" points="150.05 215.32 159.92 220.63 149.38 216.03"/><rect class="cls-11" x="136.97" y="205.08" width="7.4" height="34.9" transform="translate(-121.69 200.67) rotate(-52.94)"/><polygon class="cls-12" points="124.51 214.96 118.56 205.84 118.56 205.84 128.97 209.06 124.51 214.96"/><path class="cls-12" d="M152.36,236l4,3a1.51,1.51,0,0,0,2.09-.29l2.65-3.52a1.49,1.49,0,0,0-.29-2.09l-4-3Z"/><path class="cls-13" d="M80.34,233c-1.89,5-5.68,2.59-5.68,2.59l.22-1.5A3.62,3.62,0,0,0,80.34,233Z"/><path class="cls-14" d="M61.13,227.6a8.45,8.45,0,0,1-.45-7.45C62.39,216,72.42,209,72.42,209,69.43,216.8,66.37,224.47,61.13,227.6Z"/><path class="cls-4" d="M78.33,205.88a4.17,4.17,0,0,0-3.28,0c-1.81,1-5.25,9.29-5.25,9.29s-2,5.46-4,7.78a42.84,42.84,0,0,1-4.71,4.65,8.45,8.45,0,0,1-.45-7.45C62.39,216,72.42,209,72.42,209s-8.87,2.8-12.73,5.33-5.19,14.81-5.19,14.81S54,240.05,51,243.81s-5.25,6.89-5.25,6.89L60,263l3.55-5.32s4.3-1.78,6.15-5.57S75,239.71,75,239.71a25.9,25.9,0,0,0-.47-8.05c-1-5,5-14.37,5-14.37s2.5-4.74,1.57-8.5A3.85,3.85,0,0,0,78.33,205.88Z"/><path class="cls-15" d="M55.37,259a17.17,17.17,0,0,1,5.05-5.65c4.37-2.67,5.64-2,7.47-3.42s6.4-8.6,6.54-8.83h0l.54-1.37s-3.41,8.6-5.25,12.39-6.15,5.57-6.15,5.57L60,263Z"/><polygon class="cls-4" points="61.12 267.17 41.23 250.51 45.23 246.12 65.12 262.79 61.12 267.17"/><polygon class="cls-16" points="51.41 282.44 28.02 262.73 41.29 247.64 64.68 267.35 51.41 282.44"/><path class="cls-9" d="M132.35,227.73a7.23,7.23,0,0,0,.2,1.47h9.62l-.23-.25c-.11-.13-.21-.27-.31-.41a7.15,7.15,0,0,1-.54-.88c-.89-1.72-3.47-6.27-6.12-7.13-3.27-1.06-3.54,1.3-3.54,1.3a39.69,39.69,0,0,1,.92,5.84Z"/><path class="cls-9" d="M141,219.77c.35.08.68.15,1,.24a28.06,28.06,0,0,1,4.3,1.45v-6.27c-3.59-.95-9.27-2.3-11-1.89C132.72,213.91,134.52,218.38,141,219.77Z"/><path class="cls-17" d="M155,228.69A3.77,3.77,0,0,0,153.3,226s-3.77-4.11-11.29-6c-.33-.09-.66-.16-1-.24-6.48-1.39-8.28-5.86-5.69-6.47S149.38,216,149.38,216a5.49,5.49,0,0,1,2.35-1.74,5.37,5.37,0,0,1,3.65,0l15.81,7.59a4.71,4.71,0,0,1,2.62,4.86c-.58,4.38-1.52,11.95-1.56,16.29-.07,6.35,3.57,9.21,3.57,9.21l-13.75,12.57L140.37,239l-6.17-6.71a7.07,7.07,0,0,1-1.85-4.56v-.06a39.69,39.69,0,0,0-.92-5.84s.27-2.36,3.54-1.3c2.65.86,5.23,5.41,6.12,7.13a7.15,7.15,0,0,0,.54.88c.1.14.2.28.31.41a23.08,23.08,0,0,0,3.58,3.36,6.83,6.83,0,0,0,3.49,1.41l.37,0"/><polygon class="cls-4" points="161.45 268.95 180.7 251.54 176.54 247.31 157.28 264.71 161.45 268.95"/><polygon class="cls-18" points="171.73 283.83 194.36 263.25 180.53 248.68 157.9 269.26 171.73 283.83"/><line class="cls-19" x1="167.55" y1="191.34" x2="167.55" y2="191.34"/><line class="cls-20" x1="167.55" y1="191.34" x2="170.14" y2="191.34"/><line class="cls-21" x1="174.73" y1="191.34" x2="235.74" y2="191.34"/><line class="cls-19" x1="239.33" y1="191.34" x2="239.33" y2="191.34"/><line class="cls-19" x1="403" y1="191.34" x2="403" y2="191.34"/><line class="cls-20" x1="403" y1="191.34" x2="405.59" y2="191.34"/><line class="cls-21" x1="410.18" y1="191.34" x2="471.19" y2="191.34"/><line class="cls-19" x1="474.78" y1="191.34" x2="474.78" y2="191.34"/><path class="cls-1" d="M265,284.5s9.9,1.44,14.6,6.4a2.58,2.58,0,0,1-1.95,4.29H256.35a2.89,2.89,0,0,1-2.88-3l.23-4.07C257.08,283.5,260.83,282.12,265,284.5Z"/><path class="cls-1" d="M300.32,284.5s9.9,1.44,14.6,6.4a2.58,2.58,0,0,1-1.95,4.29H291.66a2.88,2.88,0,0,1-2.87-3l.22-4.07C292.39,283.5,296.14,282.12,300.32,284.5Z"/><path d="M301.48,197.75l2,41.55a7.3,7.3,0,0,1-.3,2.5c-.56,1.85-1.69,6.55-2.82,16.93a113.63,113.63,0,0,0,0,25.77H300a13.94,13.94,0,0,0-7.55,2.31,7.24,7.24,0,0,1-3.47,1.27l.29-10.76a27.88,27.88,0,0,1-2.69-11.27c-.14-6.45-1.23-30.38-1.23-30.38L285,216l2.37-18.2Z"/><path class="cls-22" d="M293.14,197.75v6.92a4.94,4.94,0,0,1-1.39,3.43h0a5,5,0,0,0-1.33,2.63l-5,24.94h0c-1.59,1.09-2.39,3.63-2.91,6.67a9.64,9.64,0,0,1-.64,2.23c-2.51,5.87-14.49,32.1-14.14,33.74.38,1.84.61,3.83-.18,4.49s-.29,2.72-.29,2.72-3.59-1.6-4.86,0a7.36,7.36,0,0,0-1.49,2.56H253.8s2.48-25.63,12.63-45.06l3.67-45.27Z"/><path class="cls-23" d="M284.26,197.75c12.45,1.69,13.72.15,19.8,0l.44.48c-2.3-9.8-6.19-26.82-9.23-38.31-2.69-10.14-7.95-14.09-7.95-14.09H273.2c4,7.12,9.17,16.27,10.58,30.78A89.12,89.12,0,0,1,284.26,197.75Z"/><path class="cls-24" d="M287.32,145.83s5.12,5.12,7.25,17.21,4.35,27.46,5.51,35.19,6.77,15.57,6.77,15.57-.68-25-1.16-36.45-2-18.93-8.61-25.53C291.44,146.15,287.32,145.83,287.32,145.83Z"/><path class="cls-25" d="M297.78,188.61l-.7,9.14a92.78,92.78,0,0,1-11.74-3.89c-.3,6.45-1,13.63-2.57,17.23-3.27,7.48-13.12,7.48-13.12,7.48h-5V184.84s.51-4.2-1.81-11.2-3.92-17.88-.95-20.92,11.32-6.89,11.32-6.89c7.48,8.17,11,20.5,12.33,35,0,0,0,.29,0,.83Z"/><path d="M289.69,124.42a7.2,7.2,0,0,1-1.07,4.32s-.23-3.27-2.43-3.89-8.34,1.68-8.34,1.68.82.14.91,1.66a2.59,2.59,0,0,1-1.41,2.28v3.93s-.77-2.05-3.14-.87a.61.61,0,0,0-.24.18l0,0s-2.61-4.2-2.63-6.25,2.54-5.25,6-5.7,4.84-2.82,7.84-2.79S289.62,121.58,289.69,124.42Z"/><path class="cls-26" d="M288.62,128.74v10.81a3.84,3.84,0,0,1-3.29,3.87,5.27,5.27,0,0,1-.82.06l2.82,2.35s.22,4.49-2.91,4.93-8.75-1.73-11.23-4.93c0,0,1.84-.19,1.93-3.3s-.52-4-.52-4-2.54-3.48-.63-4.78a.61.61,0,0,1,.24-.18c2.37-1.18,3.14.87,3.14.87v-3.93a2.59,2.59,0,0,0,1.41-2.28c-.09-1.52-.91-1.66-.91-1.66s6.11-2.31,8.34-1.68S288.62,128.74,288.62,128.74Z"/><polyline class="cls-27" points="297.78 189.34 298.84 189.94 298.31 197.31 297.16 196.7"/><path class="cls-28" d="M358.08,147.79s2.17-5,1.82-6.86h-1.59a3.78,3.78,0,0,1-3.78-3.78v-2.92s-1.88-.27-1.66-1.56S356,129.1,356,129.1v-4.71s0-2.13,2.77-3.23,7.56,1.07,7.56,1.07l5.16,14.89.61,5.2"/><path class="cls-29" d="M350.58,158.88l-10.94,14.59s-12.86,10.28-21.72,14.94v5.92A91.06,91.06,0,0,0,331.29,193c5.57-1.16,18.18-7.75,18.18-7.75Z"/><path class="cls-30" d="M391.88,181.31c-1.07,5.63-19.75,22.34-19.75,22.34l-4.26-5.7,1.19-2.39c-3.11.47-8.12.19-16.71-1.48a8.42,8.42,0,0,1-2.33-3.15,35.22,35.22,0,0,1-.55-5.71l1.11-26.34s2.69-9.06,5.17-10.69a10.1,10.1,0,0,1,4.86-1.66V144.6c6.43-3.55,11.52-3,11.52-3a64.61,64.61,0,0,1,11.09,15.8C388.46,167.57,393,175.69,391.88,181.31Z"/><path class="cls-8" d="M360.61,146.53c.1,1.24.15,2.49.19,3.74l-.2-.19a13.49,13.49,0,0,0,2.8-.92c.91-.4,1.81-.84,2.69-1.32s1.73-1,2.6-1.52l2.55-1.62c-.76.67-1.55,1.3-2.37,1.9a27.09,27.09,0,0,1-2.55,1.65,19.9,19.9,0,0,1-2.73,1.37,10.91,10.91,0,0,1-3,.84l-.21,0v-.21C360.46,149,360.51,147.77,360.61,146.53Z"/><path d="M357.24,122.08s-.42-3.69,1.33-4.41,8.41-1.18,12.18,1.86,3.85,5.7,3.85,5.7,1,7.06-3,12.27c0,0-2.25.67-3.47-1s.74-1.51,1.14-2.88-.65-4.43-3-3.9a1.31,1.31,0,0,0-1,.83s.91-6.25-.81-7.95S358.53,121.09,357.24,122.08Z"/><path class="cls-31" d="M367.88,198s-2.76-.28-4.23.84l-3.82.61a1.32,1.32,0,0,0-1.1,1.45h0a1.33,1.33,0,0,0,1.13,1.17l2.57.36s-.4,2.38.26,3.55,5.52,3.44,7.59,2.93,1.85-5.21,1.85-5.21Z"/><path class="cls-31" d="M317.92,188.4v5.93a8.37,8.37,0,0,0-4,3.17,15.58,15.58,0,0,1-6.88,1.34l-1.6-8.87a10.43,10.43,0,0,1,1.59-2.9l0,0c.85-.86,1.66,2.12,5.11,2A29.11,29.11,0,0,0,317.92,188.4Z"/><path class="cls-8" d="M370.38,167.72a27.45,27.45,0,0,1,3.94,5.5,44.65,44.65,0,0,1,2.87,6.15l0,0,0,.06L368.06,198l0-.21,4.28,5.68-.35,0q5.14-4.69,10.06-9.65c1.63-1.66,3.22-3.35,4.75-5.1a38.29,38.29,0,0,0,4.15-5.54,7.94,7.94,0,0,0,.68-1.56,3.7,3.7,0,0,0,.16-.83,6,6,0,0,0,.08-.85,14.08,14.08,0,0,0-.33-3.42,36.59,36.59,0,0,0-2.23-6.57c-1.84-4.27-4-8.4-6.07-12.56,2.16,4.12,4.42,8.19,6.32,12.45a36.39,36.39,0,0,1,2.29,6.61,14.21,14.21,0,0,1,.36,3.5,6.67,6.67,0,0,1-.07.89,4.53,4.53,0,0,1-.16.88,8,8,0,0,1-.71,1.64A37.75,37.75,0,0,1,387.1,189c-1.53,1.77-3.11,3.48-4.73,5.15-3.24,3.35-6.61,6.56-10.08,9.67l-.2.17-.15-.2-4.23-5.71-.08-.11.06-.11,9.26-18.5v.1a48.48,48.48,0,0,0-2.74-6.17A27.24,27.24,0,0,0,370.38,167.72Z"/><path class="cls-8" d="M360.18,150.68a2.93,2.93,0,0,0-.82,1.08,10.76,10.76,0,0,0-.55,1.25,24.67,24.67,0,0,0-.8,2.62c-.47,1.77-.82,3.57-1.11,5.37-.59,3.61-1.06,7.25-1.34,10.9a108.27,108.27,0,0,0-.35,11,77,77,0,0,0,.92,10.94,62.53,62.53,0,0,1-1.32-10.92,96.43,96.43,0,0,1,.23-11c.33-3.67.79-7.31,1.47-10.93a52.9,52.9,0,0,1,1.26-5.37,24.33,24.33,0,0,1,.92-2.6,10.12,10.12,0,0,1,.62-1.23A3,3,0,0,1,360.18,150.68Z"/><path class="cls-32" d="M660.23,140.77H506.17a4.87,4.87,0,0,0-4.87,4.87V246.93a4.87,4.87,0,0,0,4.87,4.87c54.55,4.71,106.43,5.49,154.06,0a4.87,4.87,0,0,0,4.87-4.87V145.64A4.87,4.87,0,0,0,660.23,140.77Z"/><path class="cls-33" d="M487.65,251.8a4.31,4.31,0,0,0-3.77,6.4,16.66,16.66,0,0,0,14.52,8.48H668a16.64,16.64,0,0,0,14.52-8.48,4.3,4.3,0,0,0-3.77-6.4Z"/><rect class="cls-9" x="537.42" y="124.12" width="91.56" height="144.33" transform="translate(779.49 -386.92) rotate(90)"/><polygon class="cls-34" points="580.55 178.1 537.18 178.1 537.18 167.91 532.77 163.5 580.55 163.5 580.55 178.1"/><line class="cls-35" x1="551.33" y1="167.36" x2="576.83" y2="167.36"/><line class="cls-35" x1="551.33" y1="170.8" x2="576.83" y2="170.8"/><line class="cls-35" x1="551.33" y1="174.24" x2="576.83" y2="174.24"/><path d="M546.61,172.23a2.09,2.09,0,0,1-1.82,2V175h-.94v-.71a3.46,3.46,0,0,1-1.72-.52l-.06-.05.35-1,.11.07a2.92,2.92,0,0,0,1.6.48c.75,0,1.27-.42,1.27-1s-.36-.92-1.24-1.28-2-.93-2-2.1a2,2,0,0,1,1.75-1.93v-.73h.92v.67a3.14,3.14,0,0,1,1.45.41l.07.05-.36.95-.1-.06a2.75,2.75,0,0,0-1.41-.38c-.82,0-1.11.48-1.11.89s.31.78,1.36,1.22C546.06,170.55,546.61,171.2,546.61,172.23Z"/><polygon class="cls-36" points="580.55 197.95 537.18 197.95 537.18 187.75 532.77 183.34 580.55 183.34 580.55 197.95"/><line class="cls-35" x1="551.33" y1="187.2" x2="576.83" y2="187.2"/><line class="cls-35" x1="551.33" y1="190.65" x2="576.83" y2="190.65"/><line class="cls-35" x1="551.33" y1="194.09" x2="576.83" y2="194.09"/><path d="M546.61,192.07a2.1,2.1,0,0,1-1.82,2.05v.75h-.94v-.7a3.57,3.57,0,0,1-1.72-.53l-.06,0,.35-1,.11.07a3,3,0,0,0,1.6.48c.75,0,1.27-.43,1.27-1s-.36-.93-1.24-1.28-2-.94-2-2.1a2,2,0,0,1,1.75-1.94v-.72h.92v.67a3.13,3.13,0,0,1,1.45.4l.07.05-.36,1-.1-.06a2.65,2.65,0,0,0-1.41-.38c-.82,0-1.11.48-1.11.89s.31.78,1.36,1.22C546.06,190.39,546.61,191.05,546.61,192.07Z"/><polygon class="cls-37" points="580.55 217.8 537.18 217.8 537.18 207.6 532.77 203.19 580.55 203.19 580.55 217.8"/><line class="cls-35" x1="551.33" y1="207.05" x2="576.83" y2="207.05"/><line class="cls-35" x1="551.33" y1="210.49" x2="576.83" y2="210.49"/><line class="cls-35" x1="551.33" y1="213.94" x2="576.83" y2="213.94"/><path d="M546.61,211.92a2.09,2.09,0,0,1-1.82,2v.76h-.94V214a3.46,3.46,0,0,1-1.72-.52l-.06-.05.35-1,.11.06a2.92,2.92,0,0,0,1.6.48c.75,0,1.27-.42,1.27-1s-.36-.92-1.24-1.28-2-.93-2-2.09a2,2,0,0,1,1.75-1.94V206h.92v.66a3.27,3.27,0,0,1,1.45.41l.07.05-.36,1-.1-.06a2.63,2.63,0,0,0-1.41-.39c-.82,0-1.11.49-1.11.89s.31.79,1.36,1.23C546.06,210.24,546.61,210.9,546.61,211.92Z"/><path class="cls-38" d="M532.28,190.64a7.81,7.81,0,0,1-1.77,5,2.69,2.69,0,0,1-.27.32,7.8,7.8,0,0,1-5.26,2.55l-.24,0h-.88a7.86,7.86,0,0,1-5.25-2.56,2.69,2.69,0,0,1-.27-.32,7.73,7.73,0,0,1-1.77-5,7.86,7.86,0,0,1,15.71,0Z"/><path class="cls-39" d="M530.24,195.93a7.8,7.8,0,0,1-5.26,2.55l-.24,0h-.88a7.86,7.86,0,0,1-5.25-2.56,3.3,3.3,0,0,1,1.36-1.36,2.67,2.67,0,0,1,.46-.2l.22-.07.17,0,2.26-.53h3.32l1.63.52.16,0,.22.07a3.9,3.9,0,0,1,.47.2A3.38,3.38,0,0,1,530.24,195.93Z"/><polygon class="cls-26" points="523.13 192.33 524.42 192.85 525.71 192.33 525.94 193.4 524.42 194.23 522.9 193.4 523.13 192.33"/><polygon class="cls-40" points="524.68 195.17 524.16 195.17 523.49 194.23 525.34 194.23 524.68 195.17"/><path class="cls-41" d="M525,198.48l-.24,0h-.88l.3-3.31h.52Z"/><polygon class="cls-42" points="522.9 193.4 524.42 194.23 523.47 195.41 522.57 193.84 522.9 193.4"/><polygon class="cls-42" points="525.94 193.4 524.42 194.23 525.38 195.41 526.44 193.73 525.94 193.4"/><ellipse class="cls-26" cx="521.53" cy="189.94" rx="0.47" ry="0.81"/><ellipse class="cls-26" cx="527.3" cy="189.94" rx="0.47" ry="0.81"/><path class="cls-26" d="M527.38,189.43a5.17,5.17,0,0,1-1.59,3.72,2.14,2.14,0,0,1-1.38.57,2.1,2.1,0,0,1-1.36-.56,5.16,5.16,0,0,1-1.61-3.73c0-.1,0-.21,0-.31A4,4,0,0,1,525,187.9a4.82,4.82,0,0,0,2,0A3.49,3.49,0,0,1,527.38,189.43Z"/><path d="M520.84,188.54a2.62,2.62,0,0,1,.56,1.37.19.19,0,0,0,.18.17h0a.19.19,0,0,0,.19-.17,5.73,5.73,0,0,1,.15-.83,20.34,20.34,0,0,0,3,.39,2.43,2.43,0,0,0,2-.9,3.25,3.25,0,0,1,.18,1.32.2.2,0,0,0,.19.19h0a.18.18,0,0,0,.18-.17,10.63,10.63,0,0,0,0-2.22c-.09-.51,0-1.44-2-2.22a2.49,2.49,0,0,0-.47-.12,6.1,6.1,0,0,0-3.6.9,1.58,1.58,0,0,0-.5,2.28Z"/><path class="cls-43" d="M532.28,170.8a7.85,7.85,0,0,1-7.54,7.85h-.64a7.87,7.87,0,0,1-7.53-7.85,7.86,7.86,0,1,1,15.71,0Z"/><path class="cls-42" d="M530.51,175.76a7.82,7.82,0,0,1-5.77,2.89h-.64a7.82,7.82,0,0,1-5.76-2.89,2.39,2.39,0,0,1,1.48-1.25l.56-.16,1.84-.52,0,0,.29-.08h3.75l.29.08,0,0,.27.08,1.57.44.56.16A2.39,2.39,0,0,1,530.51,175.76Z"/><path class="cls-44" d="M524.1,178.65a7.7,7.7,0,0,1-3.54-1,17.17,17.17,0,0,1-.18-3.29v0l1.84-.5,0,0S523,178.11,524.1,178.65Z"/><path class="cls-44" d="M528.29,177.64a7.78,7.78,0,0,1-3.55,1c1.07-.53,1.85-4.84,1.85-4.84l0,0,.27.08,1.57.42v0h0A17.94,17.94,0,0,1,528.29,177.64Z"/><polygon class="cls-40" points="524.66 175.02 524.18 175.02 523.57 174.15 525.28 174.15 524.66 175.02"/><polygon class="cls-41" points="524.18 175.03 524.66 175.03 524.97 177.83 524.42 178.31 523.88 177.83 524.18 175.03"/><polygon class="cls-39" points="522.73 173.36 524.42 174.26 523.43 175.33 522.43 173.77 522.73 173.36"/><polygon class="cls-39" points="526.12 173.36 524.42 174.26 525.42 175.33 526.41 173.77 526.12 173.36"/><ellipse class="cls-26" cx="521.62" cy="170.82" rx="0.45" ry="0.79"/><ellipse class="cls-26" cx="527.22" cy="170.82" rx="0.45" ry="0.79"/><path class="cls-26" d="M527.3,170.3a4.63,4.63,0,0,1-1.55,3.44,1.93,1.93,0,0,1-2.65,0,4.65,4.65,0,0,1-1.56-3.45c0-.09-.11-.87-.1-1a5.19,5.19,0,0,1,3.9-1.07,4.72,4.72,0,0,0,1.74.11A5.57,5.57,0,0,1,527.3,170.3Z"/><path d="M521.6,170.37a1.8,1.8,0,0,1,.1-1.06s.18.1,1.11.17a6.29,6.29,0,0,0,2.93-.83,1.86,1.86,0,0,1-.16,1,2,2,0,0,0,1.38-1,13.81,13.81,0,0,1,.16,1.65h.25a14.08,14.08,0,0,0,.15-1.77,3.19,3.19,0,0,0-1-2.12c-.58-.44-2-1.07-4.17,0-1.91.91-1.24,3.3-1,3.92Z"/><path class="cls-26" d="M523.51,173s0,0,0,0Z"/><path class="cls-45" d="M532.28,210.49a7.83,7.83,0,0,1-1.77,5,3.73,3.73,0,0,1-.26.3h0a7.53,7.53,0,0,1-2,1.56,7.66,7.66,0,0,1-3.31,1h-.88l-.24,0a7.57,7.57,0,0,1-3.3-1,7.74,7.74,0,0,1-1.95-1.56s0,0,0,0a2.43,2.43,0,0,1-.26-.3,7.73,7.73,0,0,1-1.77-5,7.86,7.86,0,0,1,15.71,0Z"/><path class="cls-1" d="M530.25,215.76h0a7.53,7.53,0,0,1-2,1.56,7.66,7.66,0,0,1-3.31,1h-.88l-.24,0a7.57,7.57,0,0,1-3.3-1,7.74,7.74,0,0,1-1.95-1.56s0,0,0,0a2.26,2.26,0,0,1,1.59-1.52l.66-.17.55-.15,1.44-.37H526l1.44.37.55.15.65.17A2.26,2.26,0,0,1,530.25,215.76Z"/><polygon class="cls-26" points="523.08 212.38 524.42 212.95 525.77 212.38 526.01 213.54 524.42 215.69 522.84 213.54 523.08 212.38"/><path class="cls-46" d="M524.42,215.69l-1.36-.7c-.47-.14-.52-1.06-.22-1.45C523.6,213.74,524.31,215.06,524.42,215.69Z"/><path class="cls-46" d="M524.42,215.69l1.36-.7c.48-.14.52-1.06.23-1.45C525.25,213.74,524.53,215.06,524.42,215.69Z"/><path class="cls-26" d="M527.35,209.37a5.52,5.52,0,0,1-1.58,3.86,2.06,2.06,0,0,1-1.36.58,2.09,2.09,0,0,1-1.35-.57,5.52,5.52,0,0,1-1.59-3.87c0-.11,0-.21,0-.32a3.89,3.89,0,0,1,3.52-1.27,4.41,4.41,0,0,0,2,0A3.76,3.76,0,0,1,527.35,209.37Z"/><path d="M527.82,210.75a4.42,4.42,0,0,1-1.52,2.3,6.47,6.47,0,0,0,.36-4.75,3.76,3.76,0,0,1-2.38.21,2.44,2.44,0,0,0-2.15.55,1.83,1.83,0,0,0-.48,1.69,8.7,8.7,0,0,0,1,2.21c-1.13-.42-1.76-2.17-1.74-3.64a3.48,3.48,0,0,1,2.56-3.76,4.06,4.06,0,0,1,1.26-.08,3.45,3.45,0,0,1,2.85,2.26A5.62,5.62,0,0,1,527.82,210.75Z"/><circle class="cls-42" cx="524.42" cy="216.21" r="0.16"/><circle class="cls-42" cx="524.42" cy="217.01" r="0.16"/><circle class="cls-42" cx="524.42" cy="217.82" r="0.16"/><polygon class="cls-47" points="647.97 187.69 604.6 187.69 604.6 177.49 600.19 173.08 647.97 173.08 647.97 187.69"/><line class="cls-35" x1="618.75" y1="176.94" x2="644.25" y2="176.94"/><line class="cls-35" x1="618.75" y1="180.39" x2="644.25" y2="180.39"/><line class="cls-35" x1="618.75" y1="183.83" x2="644.25" y2="183.83"/><path d="M614,181.81a2.1,2.1,0,0,1-1.83,2.05v.75h-.93v-.7a3.46,3.46,0,0,1-1.72-.53l-.07,0,.35-1,.12.07a3,3,0,0,0,1.6.48c.74,0,1.27-.42,1.27-1s-.36-.93-1.24-1.28-2-.93-2-2.1a2,2,0,0,1,1.74-1.93v-.73h.93v.67a3.06,3.06,0,0,1,1.44.4l.08,0-.37,1-.1-.06a2.7,2.7,0,0,0-1.4-.38c-.82,0-1.12.48-1.12.89s.32.78,1.37,1.22C613.47,180.13,614,180.79,614,181.81Z"/><polygon class="cls-48" points="647.97 207.54 604.6 207.54 604.6 197.34 600.19 192.93 647.97 192.93 647.97 207.54"/><line class="cls-35" x1="618.75" y1="196.79" x2="644.25" y2="196.79"/><line class="cls-35" x1="618.75" y1="200.23" x2="644.25" y2="200.23"/><line class="cls-35" x1="618.75" y1="203.68" x2="644.25" y2="203.68"/><path d="M614,201.66a2.09,2.09,0,0,1-1.83,2v.76h-.93v-.71a3.46,3.46,0,0,1-1.72-.52l-.07,0,.35-1,.12.06a2.93,2.93,0,0,0,1.6.49c.74,0,1.27-.43,1.27-1s-.36-.92-1.24-1.28-2-.93-2-2.09a2,2,0,0,1,1.74-1.94v-.72h.93v.66a3.19,3.19,0,0,1,1.44.41l.08.05-.37,1-.1-.06a2.61,2.61,0,0,0-1.4-.38c-.82,0-1.12.48-1.12.89s.32.78,1.37,1.22C613.47,200,614,200.64,614,201.66Z"/><path class="cls-49" d="M599.7,180.39a7.84,7.84,0,0,1-1.77,5l-.27.32a7.93,7.93,0,0,1-1.95,1.56,7.83,7.83,0,0,1-3.32,1l-.23,0h-.88a7.62,7.62,0,0,1-3.31-1,7.32,7.32,0,0,1-1.94-1.56c-.1-.1-.19-.21-.28-.31a7.86,7.86,0,1,1,14-5Z"/><path class="cls-39" d="M597.66,185.67a7.93,7.93,0,0,1-1.95,1.56,7.83,7.83,0,0,1-3.32,1l-.23,0h-.88a7.62,7.62,0,0,1-3.31-1,7.32,7.32,0,0,1-1.94-1.56,3.34,3.34,0,0,1,1.35-1.36,2.76,2.76,0,0,1,.47-.2l.22-.07.17,0,2.25-.54h3.33l1.62.52.17.05.22.07a4.73,4.73,0,0,1,.47.2A3.38,3.38,0,0,1,597.66,185.67Z"/><polygon class="cls-26" points="590.55 182.07 591.84 182.6 593.13 182.07 593.36 183.14 591.84 183.97 590.32 183.14 590.55 182.07"/><path class="cls-40" d="M592.1,184.92a.49.49,0,0,1-.53,0l-.66-.95h1.85Z"/><path class="cls-41" d="M592.39,188.22l-.23,0h-.88l.29-3.31h.53Z"/><polygon class="cls-42" points="590.32 183.14 591.84 183.97 590.88 185.15 589.98 183.58 590.32 183.14"/><polygon class="cls-42" points="593.36 183.14 591.84 183.97 592.79 185.15 593.86 183.47 593.36 183.14"/><ellipse class="cls-26" cx="588.94" cy="179.68" rx="0.47" ry="0.81"/><ellipse class="cls-26" cx="594.71" cy="179.68" rx="0.47" ry="0.81"/><path class="cls-26" d="M594.8,179.17a5.12,5.12,0,0,1-1.6,3.72,2.07,2.07,0,0,1-1.37.57,2.1,2.1,0,0,1-1.36-.55,5.19,5.19,0,0,1-1.62-3.74c0-.1,0-.21,0-.31a4,4,0,0,1,3.56-1.22,4.82,4.82,0,0,0,2,0A3.49,3.49,0,0,1,594.8,179.17Z"/><path d="M588.26,178.28a2.62,2.62,0,0,1,.56,1.37.18.18,0,0,0,.18.17h0a.2.2,0,0,0,.19-.16,4.59,4.59,0,0,1,.15-.84,20.34,20.34,0,0,0,3,.39,2.43,2.43,0,0,0,1.95-.9,3.07,3.07,0,0,1,.19,1.32.18.18,0,0,0,.19.19h0a.18.18,0,0,0,.18-.17,12.31,12.31,0,0,0,0-2.22c-.09-.51,0-1.44-2-2.22a3.74,3.74,0,0,0-.48-.12,6.07,6.07,0,0,0-3.59.9,1.57,1.57,0,0,0-.5,2.28Z"/><path class="cls-50" d="M599.7,200.23a7.87,7.87,0,0,1-1.77,5l-.26.31h0a7.93,7.93,0,0,1-1.95,1.56,7.83,7.83,0,0,1-3.32,1l-.23,0h-.65l-.23,0a7.61,7.61,0,0,1-3.31-1,7.52,7.52,0,0,1-1.94-1.56s0,0,0,0a2.52,2.52,0,0,1-.27-.3,7.86,7.86,0,1,1,14-5Z"/><path class="cls-1" d="M597.67,205.51h0a7.93,7.93,0,0,1-1.95,1.56,7.83,7.83,0,0,1-3.32,1l-.23,0h-.65l-.23,0a7.61,7.61,0,0,1-3.31-1,7.52,7.52,0,0,1-1.94-1.56s0,0,0,0a2.26,2.26,0,0,1,1.59-1.52l.65-.17.55-.15,1.45-.37h3.16l1.45.37.55.15.65.17A2.26,2.26,0,0,1,597.67,205.51Z"/><polygon class="cls-26" points="590.5 202.12 591.84 202.69 593.18 202.12 593.42 203.28 591.84 205.43 590.26 203.28 590.5 202.12"/><path class="cls-46" d="M591.84,205.43l-1.36-.7c-.47-.14-.52-1.06-.22-1.45C591,203.48,591.73,204.8,591.84,205.43Z"/><path class="cls-46" d="M591.84,205.43l1.36-.7c.47-.14.52-1.06.22-1.45C592.66,203.48,592,204.8,591.84,205.43Z"/><path class="cls-26" d="M594.77,199.11a5.5,5.5,0,0,1-1.58,3.86,2.08,2.08,0,0,1-1.36.58,2,2,0,0,1-1.35-.57,5.47,5.47,0,0,1-1.59-3.87c0-.11,0-.21,0-.32a3.85,3.85,0,0,1,3.52-1.26,4.52,4.52,0,0,0,2-.05A3.76,3.76,0,0,1,594.77,199.11Z"/><path d="M595.23,200.49a4.45,4.45,0,0,1-1.51,2.3,6.47,6.47,0,0,0,.36-4.75,3.76,3.76,0,0,1-2.38.21,2.44,2.44,0,0,0-2.15.55,1.78,1.78,0,0,0-.48,1.69,9,9,0,0,0,1,2.21c-1.12-.42-1.76-2.16-1.74-3.64a3.48,3.48,0,0,1,2.56-3.75,3.82,3.82,0,0,1,1.26-.09,3.45,3.45,0,0,1,2.85,2.26A5.52,5.52,0,0,1,595.23,200.49Z"/><circle class="cls-42" cx="591.84" cy="205.95" r="0.16"/><circle class="cls-42" cx="591.84" cy="206.75" r="0.16"/><circle class="cls-42" cx="591.84" cy="207.56" r="0.16"/><path class="cls-51" d="M532.28,190.64a7.81,7.81,0,0,1-1.77,5,2.69,2.69,0,0,1-.27.32,7.8,7.8,0,0,1-5.26,2.55l-.24,0h-.88a7.86,7.86,0,0,1-5.25-2.56,2.69,2.69,0,0,1-.27-.32,7.73,7.73,0,0,1-1.77-5,7.86,7.86,0,0,1,15.71,0Z"/><path class="cls-51" d="M532.28,170.8a7.85,7.85,0,0,1-7.54,7.85h-.64a7.87,7.87,0,0,1-7.53-7.85,7.86,7.86,0,1,1,15.71,0Z"/><path class="cls-51" d="M532.28,210.49a7.83,7.83,0,0,1-1.77,5,3.73,3.73,0,0,1-.26.3h0a7.53,7.53,0,0,1-2,1.56,7.66,7.66,0,0,1-3.31,1h-.88l-.24,0a7.57,7.57,0,0,1-3.3-1,7.74,7.74,0,0,1-1.95-1.56s0,0,0,0a2.43,2.43,0,0,1-.26-.3,7.73,7.73,0,0,1-1.77-5,7.86,7.86,0,0,1,15.71,0Z"/><path class="cls-51" d="M599.7,180.39a7.84,7.84,0,0,1-1.77,5l-.27.32a7.93,7.93,0,0,1-1.95,1.56,7.83,7.83,0,0,1-3.32,1l-.23,0h-.88a7.62,7.62,0,0,1-3.31-1,7.32,7.32,0,0,1-1.94-1.56c-.1-.1-.19-.21-.28-.31a7.86,7.86,0,1,1,14-5Z"/><path class="cls-51" d="M599.7,200.23a7.87,7.87,0,0,1-1.77,5l-.26.31h0a7.93,7.93,0,0,1-1.95,1.56,7.83,7.83,0,0,1-3.32,1l-.23,0h-.65l-.23,0a7.61,7.61,0,0,1-3.31-1,7.52,7.52,0,0,1-1.94-1.56s0,0,0,0a2.52,2.52,0,0,1-.27-.3,7.86,7.86,0,1,1,14-5Z"/><rect class="cls-13" x="568.54" y="255.63" width="29.32" height="3.47" rx="1.67"/><path class="cls-52" d="M278.64,165.26c1.86,5.18,3.76,10.35,5.58,15.54l-.07-.08,13.74,7.71.11.06v.14l-.66,9.14,0,.3L297,198a89.37,89.37,0,0,1-12.45-4.21,96.07,96.07,0,0,1-11.74-5.89l-.05,0,0-.05-4.05-9.05-4-9.07,4.21,9,4.14,9-.07-.07a95.35,95.35,0,0,0,11.74,5.78,99.18,99.18,0,0,0,12.41,4.13l-.31.22.74-9.13.11.2L284,181l-.05,0,0-.06C282.12,175.71,280.4,170.48,278.64,165.26Z"/><path class="cls-28" d="M313.94,197.5a15.58,15.58,0,0,1-6.88,1.34h-.21c-4.06-.18-3.61-2.1-8.5-2.1l.42-5.81s3.65-.76,5.46-2.28a5.53,5.53,0,0,1,2.82-1.58c.35,0,.58.25.63.75a8.17,8.17,0,0,0,.87,3.48C309.06,192,313.94,197.5,313.94,197.5Z"/></svg>