<svg id="Layer_1" data-name="Layer 1" xmlns="http://www.w3.org/2000/svg" xmlns:xlink="http://www.w3.org/1999/xlink" viewBox="0 0 711.1 426.7"><defs><style>.cls-1,.cls-17{fill:#1c1816;}.cls-1,.cls-10,.cls-11,.cls-12,.cls-13,.cls-15,.cls-18,.cls-19,.cls-2,.cls-20,.cls-21,.cls-22,.cls-23,.cls-24,.cls-25,.cls-26,.cls-27,.cls-28,.cls-3,.cls-4,.cls-5,.cls-6,.cls-7{stroke:#010101;}.cls-1,.cls-11,.cls-12,.cls-13,.cls-15,.cls-18,.cls-19,.cls-20,.cls-21,.cls-22,.cls-23,.cls-24,.cls-25,.cls-26,.cls-27,.cls-28,.cls-9{stroke-linecap:round;stroke-linejoin:round;}.cls-1,.cls-12,.cls-13,.cls-15,.cls-18,.cls-19,.cls-20,.cls-21,.cls-22,.cls-23,.cls-24,.cls-25,.cls-26,.cls-27,.cls-28{stroke-width:0.5px;}.cls-10,.cls-2,.cls-3,.cls-4,.cls-5,.cls-6,.cls-7,.cls-8{stroke-miterlimit:10;}.cls-2{fill:url(#New_Gradient_Swatch);}.cls-3{fill:url(#New_Gradient_Swatch-2);}.cls-4{fill:none;}.cls-11,.cls-12,.cls-5{fill:#fff;}.cls-6{fill:url(#New_Gradient_Swatch-3);}.cls-7{fill:#9988c0;}.cls-8{stroke:#000;}.cls-9{fill:#010101;stroke:#fff;stroke-width:2px;}.cls-10{fill:url(#New_Gradient_Swatch_copy);}.cls-13{fill:url(#New_Gradient_Swatch-4);}.cls-14{fill:#88c5ec;}.cls-15{fill:url(#New_Gradient_Swatch-5);}.cls-16{fill:#efefef;}.cls-19{fill:url(#New_Gradient_Swatch_copy-2);}.cls-20{fill:url(#New_Gradient_Swatch_copy-3);}.cls-21{fill:url(#New_Gradient_Swatch_copy-4);}.cls-22{fill:url(#New_Gradient_Swatch_copy-5);}.cls-23{fill:url(#New_Gradient_Swatch_copy-6);}.cls-24{fill:url(#New_Gradient_Swatch_copy-7);}.cls-25{fill:url(#New_Gradient_Swatch_copy-8);}.cls-26{fill:url(#New_Gradient_Swatch_copy-9);}.cls-27{fill:url(#New_Gradient_Swatch_copy-10);}.cls-28{fill:url(#New_Gradient_Swatch_copy-11);}</style><linearGradient id="New_Gradient_Swatch" x1="181.51" y1="294.43" x2="421.46" y2="294.43" gradientUnits="userSpaceOnUse"><stop offset="0.01" stop-color="#4ba5dc"/><stop offset="1" stop-color="#405daa"/></linearGradient><linearGradient id="New_Gradient_Swatch-2" x1="181.5" y1="269.74" x2="421.46" y2="269.74" xlink:href="#New_Gradient_Swatch"/><linearGradient id="New_Gradient_Swatch-3" x1="261.73" y1="296.74" x2="290.65" y2="296.74" xlink:href="#New_Gradient_Swatch"/><linearGradient id="New_Gradient_Swatch_copy" x1="325.67" y1="263.81" x2="360.37" y2="263.81" gradientUnits="userSpaceOnUse"><stop offset="0.01" stop-color="#ffdb59"/><stop offset="1" stop-color="#dce11f"/></linearGradient><linearGradient id="New_Gradient_Swatch-4" x1="506.51" y1="83.88" x2="534.23" y2="83.88" xlink:href="#New_Gradient_Swatch"/><linearGradient id="New_Gradient_Swatch-5" x1="506.51" y1="100.33" x2="538.4" y2="100.33" xlink:href="#New_Gradient_Swatch"/><linearGradient id="New_Gradient_Swatch_copy-2" x1="454.43" y1="120" x2="471.31" y2="120" gradientTransform="translate(925.74 240) rotate(180)" xlink:href="#New_Gradient_Swatch_copy"/><linearGradient id="New_Gradient_Swatch_copy-3" x1="471.31" y1="120" x2="483.28" y2="120" gradientTransform="translate(954.59 240) rotate(180)" xlink:href="#New_Gradient_Swatch_copy"/><linearGradient id="New_Gradient_Swatch_copy-4" x1="406.02" y1="99.18" x2="422.9" y2="99.18" gradientTransform="translate(828.92 198.36) rotate(180)" xlink:href="#New_Gradient_Swatch_copy"/><linearGradient id="New_Gradient_Swatch_copy-5" x1="422.9" y1="99.18" x2="434.87" y2="99.18" gradientTransform="translate(857.77 198.36) rotate(180)" xlink:href="#New_Gradient_Swatch_copy"/><linearGradient id="New_Gradient_Swatch_copy-6" x1="404.11" y1="120" x2="420.98" y2="120" gradientTransform="translate(825.09 240) rotate(180)" xlink:href="#New_Gradient_Swatch_copy"/><linearGradient id="New_Gradient_Swatch_copy-7" x1="420.98" y1="120" x2="432.96" y2="120" gradientTransform="translate(853.94 240) rotate(180)" xlink:href="#New_Gradient_Swatch_copy"/><linearGradient id="New_Gradient_Swatch_copy-8" x1="436.14" y1="120" x2="453.02" y2="120" gradientTransform="translate(889.16 240) rotate(180)" xlink:href="#New_Gradient_Swatch_copy"/><linearGradient id="New_Gradient_Swatch_copy-9" x1="453.02" y1="120" x2="464.99" y2="120" gradientTransform="translate(918.01 240) rotate(180)" xlink:href="#New_Gradient_Swatch_copy"/><linearGradient id="New_Gradient_Swatch_copy-10" x1="444.12" y1="106.28" x2="460.99" y2="106.28" gradientTransform="translate(905.11 212.56) rotate(180)" xlink:href="#New_Gradient_Swatch_copy"/><linearGradient id="New_Gradient_Swatch_copy-11" x1="460.99" y1="106.28" x2="472.97" y2="106.28" gradientTransform="translate(933.96 212.56) rotate(180)" xlink:href="#New_Gradient_Swatch_copy"/></defs><path class="cls-1" d="M235.6,233,183,235.82a12.16,12.16,0,0,0-11.42,13.63l14.82,120.62h53.08Z"/><path class="cls-2" d="M411,353.19s-12.45-15.3-28.85-14.52a10.57,10.57,0,0,0-5.38,1.65l-2.91-14.49-19.41-31.47a122,122,0,0,0-2.37,29.1c.73,15.6,8.29,46.61,8.29,46.61H239.47s-.63-12-1-26.89c-14.57,7.35-29,13.69-34.22,15.29-11.6,3.56-14.9,4.26-21.05-10.88S190,307.13,190,307.13s24.83-63.89,32.17-69.32,41.65-14.92,41.65-14.92l72.4-3.62s11.19-2.37,20.35,3.3,16.57,23.82,16.57,23.82l36.43,53s9.77,8.52,11.66,25.87S411,353.19,411,353.19Z"/><path class="cls-3" d="M183.15,347.59C177,332.44,190,307.13,190,307.13s24.85-63.89,32.18-69.33,41.65-14.91,41.65-14.91l5-12V200.18l.63-30.76,66.73,49.85s11.2-2.37,20.35,3.31,16.56,23.82,16.56,23.82l36.44,53s9.78,8.52,11.67,25.87S411,353.19,411,353.19s-12.46-15.3-28.87-14.51a10.5,10.5,0,0,0-5.36,1.65l-2.92-14.51-19.4-31.47a121.58,121.58,0,0,0-2.37,29.1c.71,15.62,8.28,46.62,8.28,46.62H239.47a151.14,151.14,0,0,1,0-27.43"/><path class="cls-4" d="M240.09,290.3c3.08-19.17-6.15-26.74-6.15-26.74"/><path class="cls-5" d="M273.71,226.41c.77,1.81,1.15,3.76,1.86,5.6.9,2.34,2.66,4,4.42,5.7,3.35,3.29,6.9,6.38,10.41,9.5,3.32,3,6.08,6.44,9.36,9.43,5.18,4.73,15.85,3.9,19.91-1.93,2.07-3,2.91-6.77,4.09-10.16a22.2,22.2,0,0,0,1.21-7,27.05,27.05,0,0,1,.46-4.59c.71-3.49,2.7-6.26,4.52-9.23a36,36,0,0,0,3.21-6.72l-63.65-47.55-.63,30.76v10.73l-1.7,4A51,51,0,0,1,273.71,226.41Z"/><polyline class="cls-6" points="261.73 287.95 277.56 281.1 290.65 300.98 275.83 312.39"/><path class="cls-5" d="M265.89,217.37a23.81,23.81,0,0,0-1,2.41,15.53,15.53,0,0,0,1.3,12.59l16.39,29.09L294,244a123.34,123.34,0,0,1-14.19-16.88c-6.79-9.78-10.89-16.24-10.89-16.24Z"/><polygon class="cls-5" points="293.96 244.03 299.96 258.86 296.96 260.44 286.96 254.78 293.96 244.03"/><path class="cls-5" d="M339.39,166.9s.18,10.33-1.13,15.06-2.78,12.27-1.94,15.93c-1.74,5.44-4.1,5.84-4.1,5.84a8.9,8.9,0,0,1-4.17-.57,23.31,23.31,0,0,0-8.9-2.56,47.36,47.36,0,0,0-7,.17c-7.92.83-9.93,3.91-13.36,5.44s-10.41,1.07-14.32-5S279.93,175,279.93,175l5-29.85,52.61-4.3C342.22,151.17,342.24,159.61,339.39,166.9Z"/><path class="cls-5" d="M310.39,173.86s-1.24-4-7.16-3.79a17.81,17.81,0,0,0-10.29,4.32"/><path class="cls-5" d="M324.76,174.39s2.31-3.43,6-2.9,4.49,2.43,4.49,2.43"/><ellipse class="cls-5" cx="326.06" cy="181.19" rx="2.25" ry="2.66"/><ellipse class="cls-5" cx="301.4" cy="181.19" rx="2.25" ry="2.66"/><path class="cls-5" d="M326.06,187.05s-7.21.18-7.33-6.86"/><line class="cls-5" x1="321.79" y1="185.92" x2="321.79" y2="200.77"/><path class="cls-5" d="M403.07,336.45a5,5,0,0,0-6,3.8l-3.7,16.39a5,5,0,1,0,9.81,2.21l3.7-16.38A5,5,0,0,0,403.07,336.45Z"/><path class="cls-5" d="M411.36,345.49h0a5,5,0,0,0-6,3.8l-1.92,8.53a5,5,0,0,0,9.8,2.22l1.93-8.54A5,5,0,0,0,411.36,345.49Z"/><path class="cls-5" d="M376.66,345a19.13,19.13,0,0,0-9.78,3.71c-4.18,3.39-8.6,8.2-12.15,8.68s-5,6.46-2.52,8.36,7.33,1.18,11-1.82,8.64-7.09,13.49-7.25Z"/><path class="cls-4" d="M396.77,307.76s-18.89-.79-22.91,18.06"/><path class="cls-5" d="M325.14,233l7.55,10.49-4.78,10.39-28,5C311.9,254.41,321.21,246.87,325.14,233Z"/><line class="cls-5" x1="148.84" y1="370.07" x2="551.08" y2="370.07"/><polygon class="cls-1" points="492 368.33 412.36 392.46 431.12 282.04 509.02 282.04 492 368.33"/><polygon class="cls-5" points="417.14 362.77 316.38 379.31 413.31 385.32 417.14 362.77"/><polygon class="cls-5" points="412.13 392.25 316.38 386.31 316.38 379.31 413.31 385.32 412.13 392.25"/><ellipse class="cls-5" cx="463.93" cy="330.33" rx="6.31" ry="7.91"/><path class="cls-4" d="M354.22,212.25s8.87,7.21,4.85,13.37-5.8,5.44-4.73,9.58,6.15,4.73,1.77,10.65"/><path class="cls-4" d="M348.49,225.93q-.14.25-.3.51c-4,6.16-5.8,5.45-4.73,9.59s6.15,4.73,1.77,10.64"/><path class="cls-7" d="M551.93,107a17.07,17.07,0,0,1-21.78,23.71,19.66,19.66,0,0,1-32.81,4.18,30.62,30.62,0,0,1-54.63,3.35,22.93,22.93,0,0,1-38.39-8.13,17.35,17.35,0,0,1-9-31.95,20.22,20.22,0,0,1-4.4-12.88c0-9.93,6.53-18,14.58-18,.32,0,.64,0,.95,0a15.51,15.51,0,0,1,19.19-23.09,16.19,16.19,0,0,1,25.91-12.34c3.23-6.18,11-10.53,20-10.53,9.37,0,17.35,4.68,20.36,11.23a19.49,19.49,0,0,1,32.51,14.51c0,.13,0,.27,0,.4a20,20,0,0,1,23.66,27.08A17,17,0,0,1,551.93,107Z"/><ellipse class="cls-7" cx="430.25" cy="165.72" rx="18.89" ry="13.81"/><ellipse class="cls-7" cx="402.53" cy="188" rx="10.73" ry="9.16"/><ellipse class="cls-7" cx="381.99" cy="203.14" rx="7.8" ry="6.5"/><path class="cls-8" d="M332.81,148.84S328.55,157,322,159.72s-14-.15-21.88-8.36-15.38,3.42-15.38,3.42l4.31,2.71s2.43,7.32-1.59,11.34a44.54,44.54,0,0,1-7.57,6.15s.59,20.23,4.49,26.26,10.89,6.51,14.32,5,5.44-4.61,13.36-5.44a47.36,47.36,0,0,1,7-.17,23.31,23.31,0,0,1,8.9,2.56,8.9,8.9,0,0,0,4.17.57s2.36-.4,4.1-5.84c0,0,2.52,9.15,1.81,16.37s-6.62,17.86-19.1,21.17-24.43-2.24-32.72-10.29a45.61,45.61,0,0,1-7.8-10.07A22.47,22.47,0,0,1,275.67,204V177.35s-3.32,7.1-8.88,5.91-10.64-15.5-10.64-15.5C277.43,141.52,302.49,132.92,332.81,148.84Z"/><path class="cls-8" d="M268.88,210.91V200.18s-11,1.58-19.08-4.42-4.73-14.35-7.1-20-6.15-6.15-4.42-15,16.88-36,52.53-42.43,51.74,27.13,51.74,27.13,7.25,11.68-3.16,21.46c0,0,2.84-9.78-8.36-15.62s-29.55-.47-29.55-.47-20,7.73-27.23,22.4-5.37,27-5.37,27"/><path class="cls-9" d="M307.74,210.32c1,1.28,3.11,2.84,7.12,2.79,6.81-.07,8.76-4.45,8.76-4.45"/><path class="cls-5" d="M277.56,281.1a25.78,25.78,0,0,0,11.59-9.46c4.62-7,4.5-12.78,10.06-17.16s21.53-11.24,25.67-7.81,5.8,27.33,5.8,27.33-8.28,11.83-15.62,13.73-10.41,1.06-13.84,3.07-11.82,8.28-11.82,8.28Z"/><line class="cls-5" x1="330.24" y1="269.02" x2="323.28" y2="273.53"/><line class="cls-5" x1="320.09" y1="267.85" x2="329.31" y2="261.46"/><line class="cls-5" x1="327.39" y1="253" x2="319.03" y2="258.86"/><polygon class="cls-10" points="325.67 242.3 330.68 285.32 355.64 285.32 360.37 242.3 325.67 242.3"/><path class="cls-4" d="M206.34,305s41.41-19.4,49.69-19.68,22.48,23.94,19.87,33.16-60.1,36.44-71.69,40-14.91,4.26-21.06-10.88"/><path class="cls-5" d="M391.74,334.83a5,5,0,0,0-5,5v16.8a5,5,0,1,0,10,0v-16.8A5,5,0,0,0,391.74,334.83Z"/><path class="cls-5" d="M381.69,334.83a5,5,0,0,0-5,5v16.8a5,5,0,0,0,10.06,0v-16.8A5,5,0,0,0,381.69,334.83Z"/><circle class="cls-1" cx="503.55" cy="108.4" r="8.18"/><circle class="cls-11" cx="503.55" cy="108.4" r="4.36"/><circle class="cls-1" cx="457.65" cy="108.4" r="8.18"/><circle class="cls-12" cx="457.65" cy="108.4" r="4.36"/><path class="cls-13" d="M526.46,73.66h-20V94.1h27.72V81.43A7.77,7.77,0,0,0,526.46,73.66Z"/><path class="cls-14" d="M530.14,88.3V80.74A4.18,4.18,0,0,0,526,76.57h-12.9V88.3Z"/><path class="cls-15" d="M533.16,92.26H506.51V108.4H538.4V97.49A5.24,5.24,0,0,0,533.16,92.26Z"/><rect class="cls-12" x="445.41" y="64.3" width="63.58" height="44.2"/><rect class="cls-12" x="420.99" y="64.39" width="24.42" height="44.52" transform="translate(866.41 173.3) rotate(180)"/><rect class="cls-16" x="413.26" y="76.84" width="39.88" height="19.49" transform="translate(519.78 -346.62) rotate(90)"/><rect class="cls-17" x="423.46" y="86.08" width="19.49" height="20.44"/><path class="cls-18" d="M509,105.11h29.62a1.31,1.31,0,0,1,1.31,1.31v2.24a1.31,1.31,0,0,1-1.31,1.31H509a0,0,0,0,1,0,0v-4.86A0,0,0,0,1,509,105.11Z"/><rect class="cls-18" x="420.99" y="108.05" width="88" height="1.93" transform="translate(929.99 218.03) rotate(180)"/><circle class="cls-1" cx="522.45" cy="108.4" r="8.18"/><circle class="cls-12" cx="522.45" cy="108.4" r="4.36"/><polygon class="cls-16" points="411.34 115.67 423.46 106.52 442.95 106.52 430.83 115.67 411.34 115.67"/><rect class="cls-19" x="454.43" y="113.11" width="16.87" height="13.79" transform="translate(925.74 240) rotate(-180)"/><rect class="cls-20" x="471.31" y="113.11" width="11.98" height="13.79" transform="translate(954.59 240) rotate(-180)"/><path class="cls-12" d="M475.61,117.22h3.63a1,1,0,0,0,1-1h0a1,1,0,0,0-1-1h-3.63a1,1,0,0,0-1,1h0A1,1,0,0,0,475.61,117.22Z"/><rect class="cls-12" x="456.15" y="124" width="4.49" height="1.49" transform="translate(916.79 249.49) rotate(-180)"/><path class="cls-12" d="M462,112.61h5.55c.35,0,.63.21.63.47v0h-.72v8.35h-6.09v-8.38C461.34,112.82,461.62,112.61,462,112.61Z"/><rect class="cls-21" x="406.02" y="92.29" width="16.87" height="13.79" transform="translate(828.92 198.36) rotate(-180)"/><rect class="cls-22" x="422.9" y="92.29" width="11.98" height="13.79" transform="translate(857.77 198.36) rotate(-180)"/><path class="cls-12" d="M427.2,96.4h3.63a1,1,0,0,0,1-1h0a1,1,0,0,0-1-1H427.2a1,1,0,0,0-1,1h0A1,1,0,0,0,427.2,96.4Z"/><rect class="cls-12" x="407.74" y="103.18" width="4.49" height="1.49" transform="translate(819.97 207.85) rotate(-180)"/><path class="cls-12" d="M413.56,91.78h5.55c.35,0,.63.21.63.47v0H419v8.34h-6.09V92.25C412.93,92,413.21,91.78,413.56,91.78Z"/><rect class="cls-23" x="404.11" y="113.11" width="16.87" height="13.79" transform="translate(825.09 240) rotate(-180)"/><rect class="cls-24" x="420.98" y="113.11" width="11.98" height="13.79" transform="translate(853.94 240) rotate(-180)"/><path class="cls-12" d="M425.29,117.22h3.62a1,1,0,0,0,1-1h0a1,1,0,0,0-1-1h-3.62a1,1,0,0,0-1,1h0A1,1,0,0,0,425.29,117.22Z"/><rect class="cls-12" x="405.83" y="124" width="4.49" height="1.49" transform="translate(816.14 249.49) rotate(-180)"/><path class="cls-12" d="M411.65,112.61h5.55c.35,0,.63.21.63.47v0h-.73v8.35H411v-8.38C411,112.82,411.3,112.61,411.65,112.61Z"/><rect class="cls-25" x="436.14" y="113.11" width="16.87" height="13.79" transform="translate(889.16 240) rotate(-180)"/><rect class="cls-26" x="453.02" y="113.11" width="11.98" height="13.79" transform="translate(918.01 240) rotate(-180)"/><path class="cls-12" d="M457.33,117.22H461a1,1,0,0,0,1-1h0a1,1,0,0,0-1-1h-3.62a1,1,0,0,0-1,1h0A1,1,0,0,0,457.33,117.22Z"/><rect class="cls-12" x="437.86" y="124" width="4.49" height="1.49" transform="translate(880.21 249.49) rotate(-180)"/><path class="cls-12" d="M443.68,112.61h5.55c.35,0,.63.21.63.47v0h-.72v8.35h-6.09v-8.38C443.05,112.82,443.34,112.61,443.68,112.61Z"/><rect class="cls-27" x="444.12" y="99.38" width="16.87" height="13.79" transform="translate(905.11 212.56) rotate(-180)"/><rect class="cls-28" x="460.99" y="99.38" width="11.98" height="13.79" transform="translate(933.96 212.56) rotate(-180)"/><path class="cls-12" d="M465.3,103.5h3.62a1,1,0,0,0,1-1h0a1,1,0,0,0-1-1H465.3a1,1,0,0,0-1,1h0A1,1,0,0,0,465.3,103.5Z"/><rect class="cls-12" x="445.84" y="110.27" width="4.49" height="1.49" transform="translate(896.16 222.04) rotate(-180)"/><path class="cls-12" d="M451.66,98.88h5.55c.35,0,.63.21.63.47v0h-.73v8.35H451V99.35C451,99.09,451.31,98.88,451.66,98.88Z"/></svg>