<svg id="Layer_1" data-name="Layer 1" xmlns="http://www.w3.org/2000/svg" xmlns:xlink="http://www.w3.org/1999/xlink" viewBox="0 0 711.1 426.7"><defs><style>.cls-1,.cls-103,.cls-11,.cls-14,.cls-16,.cls-20,.cls-23,.cls-34,.cls-6,.cls-7,.cls-74,.cls-8,.cls-9{fill:none;}.cls-2{fill:url(#linear-gradient);}.cls-3{fill:url(#linear-gradient-2);}.cls-4{fill:url(#linear-gradient-3);}.cls-5{fill:url(#linear-gradient-4);}.cls-6{stroke:#2b6bb4;}.cls-103,.cls-11,.cls-16,.cls-20,.cls-21,.cls-22,.cls-23,.cls-26,.cls-6,.cls-61,.cls-68,.cls-70,.cls-71,.cls-74,.cls-9{stroke-miterlimit:10;}.cls-100,.cls-101,.cls-14,.cls-16,.cls-22,.cls-23,.cls-26,.cls-34,.cls-35,.cls-36,.cls-37,.cls-38,.cls-40,.cls-43,.cls-44,.cls-45,.cls-46,.cls-47,.cls-48,.cls-49,.cls-50,.cls-51,.cls-52,.cls-53,.cls-61,.cls-62,.cls-63,.cls-64,.cls-65,.cls-66,.cls-67,.cls-69,.cls-7,.cls-72,.cls-73,.cls-77,.cls-78,.cls-79,.cls-80,.cls-81,.cls-82,.cls-83,.cls-84,.cls-85,.cls-86,.cls-98,.cls-99{stroke:#010101;}.cls-100,.cls-101,.cls-35,.cls-36,.cls-37,.cls-38,.cls-40,.cls-43,.cls-44,.cls-45,.cls-46,.cls-47,.cls-48,.cls-49,.cls-50,.cls-51,.cls-52,.cls-53,.cls-62,.cls-63,.cls-64,.cls-65,.cls-66,.cls-67,.cls-69,.cls-7,.cls-72,.cls-73,.cls-77,.cls-78,.cls-79,.cls-80,.cls-81,.cls-82,.cls-83,.cls-84,.cls-85,.cls-86,.cls-96,.cls-98,.cls-99{stroke-linecap:round;stroke-linejoin:round;}.cls-7{stroke-width:0.75px;}.cls-8,.cls-9{stroke:#ffdb59;}.cls-8{stroke-miterlimit:10;}.cls-10{fill:url(#linear-gradient-5);}.cls-11{stroke:#fff;}.cls-12,.cls-33,.cls-61,.cls-69{fill:#2b6bb4;}.cls-13{fill:#0b0b0b;}.cls-14{stroke-miterlimit:10;}.cls-15{fill:url(#linear-gradient-6);}.cls-16{stroke-dasharray:4;}.cls-17{fill:url(#linear-gradient-7);}.cls-18,.cls-21,.cls-26,.cls-36,.cls-37,.cls-68{fill:#fff;}.cls-19{clip-path:url(#clip-path);}.cls-20,.cls-21{stroke:#1c191b;}.cls-22,.cls-29{fill:#eeda37;}.cls-24{fill:#010101;}.cls-25{fill:url(#linear-gradient-8);}.cls-27{fill:url(#linear-gradient-9);}.cls-28{clip-path:url(#clip-path-2);}.cls-30{fill:url(#linear-gradient-10);}.cls-31{fill:url(#linear-gradient-11);}.cls-32{fill:url(#linear-gradient-12);}.cls-33,.cls-34{isolation:isolate;font-size:35.66px;font-family:Montserrat-ExtraBold, Montserrat;font-weight:800;}.cls-35,.cls-42{fill:#1c1816;}.cls-35,.cls-37,.cls-38,.cls-40,.cls-43,.cls-44,.cls-45,.cls-46,.cls-47,.cls-48,.cls-49,.cls-50,.cls-51,.cls-52,.cls-53,.cls-61,.cls-62,.cls-63,.cls-64,.cls-65,.cls-66,.cls-67{stroke-width:0.5px;}.cls-38{fill:url(#New_Gradient_Swatch);}.cls-39,.cls-70{fill:#88c5ec;}.cls-40{fill:url(#New_Gradient_Swatch-2);}.cls-41,.cls-97{fill:#efefef;}.cls-44{fill:url(#New_Gradient_Swatch_copy);}.cls-45{fill:url(#New_Gradient_Swatch_copy-2);}.cls-46{fill:url(#New_Gradient_Swatch_copy-3);}.cls-47{fill:url(#New_Gradient_Swatch_copy-4);}.cls-48{fill:url(#New_Gradient_Swatch_copy-5);}.cls-49{fill:url(#New_Gradient_Swatch_copy-6);}.cls-50{fill:url(#New_Gradient_Swatch_copy-7);}.cls-51{fill:url(#New_Gradient_Swatch_copy-8);}.cls-52{fill:url(#New_Gradient_Swatch_copy-9);}.cls-53{fill:url(#New_Gradient_Swatch_copy-10);}.cls-54{fill:url(#linear-gradient-13);}.cls-55{fill:#23221c;}.cls-56{fill:url(#New_Gradient_Swatch-3);}.cls-57{fill:url(#New_Gradient_Swatch-4);}.cls-58{fill:#fb8a78;}.cls-59{fill:#f97d70;}.cls-60{fill:#dd0209;opacity:0.1;}.cls-62{fill:url(#New_Gradient_Swatch_copy-11);}.cls-63{fill:url(#New_Gradient_Swatch_copy-12);}.cls-64{fill:url(#New_Gradient_Swatch_copy-13);}.cls-65{fill:url(#New_Gradient_Swatch_copy-14);}.cls-66{fill:url(#New_Gradient_Swatch_copy-15);}.cls-67{fill:url(#New_Gradient_Swatch_copy-16);}.cls-68{stroke:#292b68;}.cls-103,.cls-70,.cls-71,.cls-96{stroke:#000;}.cls-71{fill:url(#New_Gradient_Swatch-5);}.cls-72{fill:url(#New_Gradient_Swatch_copy-17);}.cls-73{fill:url(#New_Gradient_Swatch_copy-18);}.cls-74{stroke:#5d7675;}.cls-103,.cls-74{stroke-width:2px;}.cls-75{fill:#758b89;}.cls-76{fill:#5d7675;}.cls-77{fill:url(#New_Gradient_Swatch_copy-19);}.cls-78{fill:url(#New_Gradient_Swatch_copy-20);}.cls-79{fill:url(#New_Gradient_Swatch_copy-21);}.cls-80{fill:url(#New_Gradient_Swatch_copy-22);}.cls-81{fill:url(#New_Gradient_Swatch_copy-23);}.cls-82{fill:url(#New_Gradient_Swatch_copy-24);}.cls-83{fill:url(#New_Gradient_Swatch_copy-25);}.cls-84{fill:url(#New_Gradient_Swatch_copy-26);}.cls-85{fill:url(#New_Gradient_Swatch_copy-27);}.cls-86{fill:url(#New_Gradient_Swatch_copy-28);}.cls-87{fill:url(#New_Gradient_Swatch-6);}.cls-88{fill:url(#New_Gradient_Swatch-7);}.cls-89{opacity:0.38;}.cls-90{fill:url(#New_Gradient_Swatch-8);}.cls-91{fill:url(#New_Gradient_Swatch-9);}.cls-92{fill:url(#New_Gradient_Swatch-10);}.cls-93{fill:url(#New_Gradient_Swatch-11);}.cls-94{fill:url(#New_Gradient_Swatch-12);}.cls-95{fill:url(#New_Gradient_Swatch-13);}.cls-97{opacity:0.15;}.cls-98{fill:url(#New_Gradient_Swatch_copy-29);}.cls-99{fill:url(#New_Gradient_Swatch_copy-30);}.cls-100{fill:url(#New_Gradient_Swatch_copy-31);}.cls-101{fill:url(#New_Gradient_Swatch_copy-32);}.cls-102{fill:url(#New_Gradient_Swatch-14);}</style><linearGradient id="linear-gradient" x1="272.29" y1="17.25" x2="291.69" y2="17.25" gradientTransform="matrix(1, 0, 0, -1, 0, 426)" gradientUnits="userSpaceOnUse"><stop offset="0" stop-color="#dae692"/><stop offset="1" stop-color="#e9e413"/></linearGradient><linearGradient id="linear-gradient-2" x1="266.94" y1="23.65" x2="297.01" y2="23.65" xlink:href="#linear-gradient"/><linearGradient id="linear-gradient-3" x1="261.61" y1="30.15" x2="302.36" y2="30.15" xlink:href="#linear-gradient"/><linearGradient id="linear-gradient-4" x1="278.1" y1="9.65" x2="285.87" y2="9.65" xlink:href="#linear-gradient"/><linearGradient id="linear-gradient-5" x1="31.56" y1="34.85" x2="68.04" y2="34.85" gradientTransform="matrix(1, 0.06, 0.06, -1, -1.85, 423.19)" gradientUnits="userSpaceOnUse"><stop offset="0" stop-color="#a6ceee"/><stop offset="1" stop-color="#2b6bb4"/></linearGradient><linearGradient id="linear-gradient-6" x1="680.99" y1="166.45" x2="692.09" y2="166.45" gradientTransform="matrix(1, 0, 0, -1, 0, 426)" gradientUnits="userSpaceOnUse"><stop offset="0" stop-color="#a5a5a5"/><stop offset="1" stop-color="#2b6bb4"/></linearGradient><linearGradient id="linear-gradient-7" x1="76.54" y1="111.55" x2="239.44" y2="111.55" gradientTransform="matrix(1, 0, 0, -1, 0, 426)" gradientUnits="userSpaceOnUse"><stop offset="0" stop-color="#90c1e8"/><stop offset="1" stop-color="#2b6bb4"/></linearGradient><clipPath id="clip-path"><path class="cls-1" d="M219.44,350.35H96.64a9.28,9.28,0,0,1-9.3-9.3v-66.9a9.28,9.28,0,0,1,9.3-9.3h122.7a9.28,9.28,0,0,1,9.3,9.3v66.9A9.2,9.2,0,0,1,219.44,350.35Z"/></clipPath><linearGradient id="linear-gradient-8" x1="194.34" y1="254.1" x2="331.44" y2="254.1" gradientTransform="matrix(1, 0, 0, -1, 0, 426)" xlink:href="#linear-gradient-5"/><linearGradient id="linear-gradient-9" x1="38.64" y1="295.8" x2="175.74" y2="295.8" gradientTransform="matrix(1, 0, 0, -1, 0, 426)" gradientUnits="userSpaceOnUse"><stop offset="0" stop-color="#91c4ea"/><stop offset="1" stop-color="#2b6bb4"/></linearGradient><clipPath id="clip-path-2"><path class="cls-1" d="M158.84,160.45H55.64a7.92,7.92,0,0,1-7.9-7.9V96.35a7.92,7.92,0,0,1,7.9-7.9h103.2a7.92,7.92,0,0,1,7.9,7.9v56.3A8,8,0,0,1,158.84,160.45Z"/></clipPath><linearGradient id="linear-gradient-10" x1="266.84" y1="134.15" x2="405.14" y2="134.15" gradientTransform="matrix(1, 0, 0, -1, 0, 426)" gradientUnits="userSpaceOnUse"><stop offset="0" stop-color="#93c3e9"/><stop offset="1" stop-color="#2b6bb4"/></linearGradient><linearGradient id="linear-gradient-11" x1="422.44" y1="301.45" x2="694.54" y2="301.45" gradientTransform="matrix(1, 0, 0, -1, 0, 426)" gradientUnits="userSpaceOnUse"><stop offset="0.01" stop-color="#4ba5dc"/><stop offset="1" stop-color="#405daa"/></linearGradient><linearGradient id="linear-gradient-12" x1="583.14" y1="207.86" x2="642.33" y2="207.86" gradientTransform="matrix(1, 0, 0, -1, 0, 426)" gradientUnits="userSpaceOnUse"><stop offset="0.01" stop-color="#ffdb59"/><stop offset="1" stop-color="#dce11f"/></linearGradient><linearGradient id="New_Gradient_Swatch" x1="618.59" y1="117.08" x2="663.73" y2="117.08" gradientTransform="matrix(1, 0, 0, 1, 0, 0)" xlink:href="#linear-gradient-11"/><linearGradient id="New_Gradient_Swatch-2" x1="618.59" y1="143.87" x2="670.51" y2="143.87" gradientTransform="matrix(1, 0, 0, 1, 0, 0)" xlink:href="#linear-gradient-11"/><linearGradient id="New_Gradient_Swatch_copy" x1="533.79" y1="175.9" x2="561.26" y2="175.9" gradientTransform="translate(1095.05 351.8) rotate(180)" xlink:href="#linear-gradient-12"/><linearGradient id="New_Gradient_Swatch_copy-2" x1="561.26" y1="175.9" x2="580.76" y2="175.9" gradientTransform="translate(1142.02 351.8) rotate(180)" xlink:href="#linear-gradient-12"/><linearGradient id="New_Gradient_Swatch_copy-3" x1="454.96" y1="141.99" x2="482.44" y2="141.99" gradientTransform="translate(937.4 283.99) rotate(180)" xlink:href="#linear-gradient-12"/><linearGradient id="New_Gradient_Swatch_copy-4" x1="482.44" y1="141.99" x2="501.94" y2="141.99" gradientTransform="translate(984.37 283.99) rotate(180)" xlink:href="#linear-gradient-12"/><linearGradient id="New_Gradient_Swatch_copy-5" x1="451.84" y1="175.9" x2="479.32" y2="175.9" gradientTransform="translate(931.16 351.8) rotate(180)" xlink:href="#linear-gradient-12"/><linearGradient id="New_Gradient_Swatch_copy-6" x1="479.32" y1="175.9" x2="498.82" y2="175.9" gradientTransform="translate(978.14 351.8) rotate(180)" xlink:href="#linear-gradient-12"/><linearGradient id="New_Gradient_Swatch_copy-7" x1="504.01" y1="175.9" x2="531.48" y2="175.9" gradientTransform="translate(1035.49 351.8) rotate(180)" xlink:href="#linear-gradient-12"/><linearGradient id="New_Gradient_Swatch_copy-8" x1="531.48" y1="175.9" x2="550.98" y2="175.9" gradientTransform="translate(1082.47 351.8) rotate(180)" xlink:href="#linear-gradient-12"/><linearGradient id="New_Gradient_Swatch_copy-9" x1="516.99" y1="153.55" x2="544.47" y2="153.55" gradientTransform="translate(1061.46 307.1) rotate(180)" xlink:href="#linear-gradient-12"/><linearGradient id="New_Gradient_Swatch_copy-10" x1="544.47" y1="153.55" x2="563.97" y2="153.55" gradientTransform="translate(1108.44 307.1) rotate(180)" xlink:href="#linear-gradient-12"/><linearGradient id="linear-gradient-13" x1="433.84" y1="76.25" x2="596.74" y2="76.25" gradientTransform="matrix(1, 0, 0, -1, 0, 426)" gradientUnits="userSpaceOnUse"><stop offset="0" stop-color="#4096d2"/><stop offset="1" stop-color="#2b6bb4"/></linearGradient><linearGradient id="New_Gradient_Swatch-3" x1="475.99" y1="357.21" x2="502.77" y2="357.21" gradientTransform="matrix(1, 0, 0, 1, 0, 0)" xlink:href="#linear-gradient-11"/><linearGradient id="New_Gradient_Swatch-4" x1="494.43" y1="348.52" x2="509.06" y2="348.52" gradientTransform="matrix(1, 0, 0, 1, 0, 0)" xlink:href="#linear-gradient-11"/><linearGradient id="New_Gradient_Swatch_copy-11" x1="512.47" y1="370.02" x2="526.83" y2="370.02" gradientTransform="matrix(1, 0, 0, 1, 0, 0)" xlink:href="#linear-gradient-12"/><linearGradient id="New_Gradient_Swatch_copy-12" x1="526.83" y1="370.02" x2="556.19" y2="370.02" gradientTransform="matrix(1, 0, 0, 1, 0, 0)" xlink:href="#linear-gradient-12"/><linearGradient id="New_Gradient_Swatch_copy-13" x1="519.65" y1="343.22" x2="531.42" y2="343.22" gradientTransform="matrix(1, 0, 0, 1, 0, 0)" xlink:href="#linear-gradient-12"/><linearGradient id="New_Gradient_Swatch_copy-14" x1="531.42" y1="343.22" x2="553.5" y2="343.22" gradientTransform="matrix(1, 0, 0, 1, 0, 0)" xlink:href="#linear-gradient-12"/><linearGradient id="New_Gradient_Swatch_copy-15" x1="517.61" y1="329.99" x2="531.42" y2="329.99" gradientTransform="matrix(1, 0, 0, 1, 0, 0)" xlink:href="#linear-gradient-12"/><linearGradient id="New_Gradient_Swatch_copy-16" x1="531.41" y1="329.99" x2="555.54" y2="329.99" gradientTransform="matrix(1, 0, 0, 1, 0, 0)" xlink:href="#linear-gradient-12"/><linearGradient id="New_Gradient_Swatch-5" x1="354.62" y1="301.35" x2="378.15" y2="301.35" gradientTransform="matrix(1, 0, 0, 1, 0, 0)" xlink:href="#linear-gradient-11"/><linearGradient id="New_Gradient_Swatch_copy-17" x1="359.23" y1="316.81" x2="373.56" y2="316.81" gradientTransform="matrix(1, 0, 0, 1, 0, 0)" xlink:href="#linear-gradient-12"/><linearGradient id="New_Gradient_Swatch_copy-18" x1="357.99" y1="310.12" x2="374.79" y2="310.12" gradientTransform="matrix(1, 0, 0, 1, 0, 0)" xlink:href="#linear-gradient-12"/><linearGradient id="New_Gradient_Swatch_copy-19" x1="330.35" y1="259.56" x2="357.19" y2="259.56" gradientTransform="matrix(1, 0, 0, 1, 0, 0)" xlink:href="#linear-gradient-12"/><linearGradient id="New_Gradient_Swatch_copy-20" x1="330.35" y1="243.97" x2="357.19" y2="243.97" gradientTransform="matrix(1, 0, 0, 1, 0, 0)" xlink:href="#linear-gradient-12"/><linearGradient id="New_Gradient_Swatch_copy-21" x1="99.08" y1="317.55" x2="154.35" y2="317.55" gradientTransform="translate(253.43 635.11) rotate(180)" xlink:href="#linear-gradient-12"/><linearGradient id="New_Gradient_Swatch_copy-22" x1="99.08" y1="335.88" x2="154.35" y2="335.88" gradientTransform="translate(253.43 671.76) rotate(180)" xlink:href="#linear-gradient-12"/><linearGradient id="New_Gradient_Swatch_copy-23" x1="154.35" y1="317.55" x2="183.68" y2="317.55" gradientTransform="translate(338.03 635.11) rotate(180)" xlink:href="#linear-gradient-12"/><linearGradient id="New_Gradient_Swatch_copy-24" x1="154.35" y1="335.88" x2="183.68" y2="335.88" gradientTransform="translate(338.03 671.76) rotate(180)" xlink:href="#linear-gradient-12"/><linearGradient id="New_Gradient_Swatch_copy-25" x1="109.02" y1="285.8" x2="156" y2="285.8" gradientTransform="translate(265.02 571.6) rotate(180)" xlink:href="#linear-gradient-12"/><linearGradient id="New_Gradient_Swatch_copy-26" x1="109.02" y1="301.37" x2="156" y2="301.37" gradientTransform="translate(265.02 602.75) rotate(180)" xlink:href="#linear-gradient-12"/><linearGradient id="New_Gradient_Swatch_copy-27" x1="156" y1="285.8" x2="180.92" y2="285.8" gradientTransform="translate(336.91 571.6) rotate(180)" xlink:href="#linear-gradient-12"/><linearGradient id="New_Gradient_Swatch_copy-28" x1="156" y1="301.37" x2="180.92" y2="301.37" gradientTransform="translate(336.91 602.75) rotate(180)" xlink:href="#linear-gradient-12"/><linearGradient id="New_Gradient_Swatch-6" x1="136.67" y1="279.66" x2="140.16" y2="279.66" gradientTransform="matrix(1, 0, 0, 1, 0, 0)" xlink:href="#linear-gradient-11"/><linearGradient id="New_Gradient_Swatch-7" x1="133.5" y1="274.27" x2="136.99" y2="274.27" gradientTransform="matrix(1, 0, 0, 1, 0, 0)" xlink:href="#linear-gradient-11"/><linearGradient id="New_Gradient_Swatch-8" x1="299.29" y1="180.35" x2="299.29" y2="180.35" gradientTransform="matrix(1, 0, 0, 1, 0, 0)" xlink:href="#linear-gradient-11"/><linearGradient id="New_Gradient_Swatch-9" x1="297.29" y1="180.34" x2="301.29" y2="180.34" gradientTransform="matrix(1, 0, 0, 1, 0, 0)" xlink:href="#linear-gradient-11"/><linearGradient id="New_Gradient_Swatch-10" x1="289.97" y1="182.85" x2="298.68" y2="182.85" gradientTransform="matrix(1, 0, 0, 1, 0, 0)" xlink:href="#linear-gradient-11"/><linearGradient id="New_Gradient_Swatch-11" x1="287.97" y1="182.84" x2="300.68" y2="182.84" gradientTransform="matrix(1, 0, 0, 1, 0, 0)" xlink:href="#linear-gradient-11"/><linearGradient id="New_Gradient_Swatch-12" x1="299.59" y1="182.85" x2="308.29" y2="182.85" gradientTransform="matrix(1, 0, 0, 1, 0, 0)" xlink:href="#linear-gradient-11"/><linearGradient id="New_Gradient_Swatch-13" x1="297.59" y1="182.84" x2="310.29" y2="182.84" gradientTransform="matrix(1, 0, 0, 1, 0, 0)" xlink:href="#linear-gradient-11"/><linearGradient id="New_Gradient_Swatch_copy-29" x1="228.29" y1="189.03" x2="260.03" y2="189.03" gradientTransform="translate(488.32 378.06) rotate(180)" xlink:href="#linear-gradient-12"/><linearGradient id="New_Gradient_Swatch_copy-30" x1="260.03" y1="189.03" x2="282.56" y2="189.03" gradientTransform="translate(542.59 378.06) rotate(180)" xlink:href="#linear-gradient-12"/><linearGradient id="New_Gradient_Swatch_copy-31" x1="91.62" y1="125.67" x2="121.08" y2="125.67" gradientTransform="matrix(1, 0, 0, 1, 0, 0)" xlink:href="#linear-gradient-12"/><linearGradient id="New_Gradient_Swatch_copy-32" x1="69.97" y1="125.67" x2="91.62" y2="125.67" gradientTransform="matrix(1, 0, 0, 1, 0, 0)" xlink:href="#linear-gradient-12"/><linearGradient id="New_Gradient_Swatch-14" x1="89.4" y1="137.67" x2="145.94" y2="137.67" gradientTransform="matrix(1, 0, 0, 1, 0, 0)" xlink:href="#linear-gradient-11"/></defs><path class="cls-2" d="M272.24,409.15l3.2,3.2a9.15,9.15,0,0,1,6.5-2.7,9.51,9.51,0,0,1,6.5,2.7l3.2-3.2a13.53,13.53,0,0,0-9.7-4A14.13,14.13,0,0,0,272.24,409.15Z"/><path class="cls-3" d="M266.94,403.85l3.2,3.2a16.57,16.57,0,0,1,11.8-4.9,16.24,16.24,0,0,1,11.8,4.9l3.2-3.2a21.25,21.25,0,0,0-30,0Z"/><path class="cls-4" d="M281.94,390.05a28.92,28.92,0,0,0-20.4,8.4l3.2,3.2a24.38,24.38,0,0,1,34.4,0l3.2-3.2A28.74,28.74,0,0,0,281.94,390.05Z"/><path class="cls-5" d="M281.94,412.45a3.9,3.9,0,1,0,3.9,3.9A3.84,3.84,0,0,0,281.94,412.45Z"/><path class="cls-6" d="M346.34,108.25l3.2,3.2a9.15,9.15,0,0,1,6.5-2.7,9.51,9.51,0,0,1,6.5,2.7l3.2-3.2a13.53,13.53,0,0,0-9.7-4A13.7,13.7,0,0,0,346.34,108.25Z"/><path class="cls-6" d="M341,103l3.2,3.2a16.57,16.57,0,0,1,11.8-4.9,16.24,16.24,0,0,1,11.8,4.9L371,103a21.19,21.19,0,0,0-15-6.2A20.23,20.23,0,0,0,341,103Z"/><path class="cls-6" d="M356,89.15a28.92,28.92,0,0,0-20.4,8.4l3.2,3.2a24.38,24.38,0,0,1,34.4,0l3.2-3.2A28.74,28.74,0,0,0,356,89.15Z"/><circle class="cls-6" cx="356.04" cy="115.35" r="3.9"/><line class="cls-7" x1="413.94" y1="242.55" x2="413.94" y2="252.55"/><line class="cls-7" x1="408.94" y1="247.55" x2="418.94" y2="247.55"/><line class="cls-7" x1="139.14" y1="403.85" x2="139.14" y2="413.75"/><line class="cls-7" x1="134.14" y1="408.75" x2="144.14" y2="408.75"/><circle class="cls-8" cx="669.52" cy="339.58" r="22"/><rect class="cls-9" x="656.94" y="330.25" width="25.8" height="18.1"/><polyline class="cls-9" points="656.94 330.25 669.84 341.45 682.74 330.25"/><circle class="cls-10" cx="49.84" cy="391.15" r="18.2" transform="translate(-21.55 3.35) rotate(-3.17)"/><rect class="cls-11" x="39.34" y="383.45" width="21.4" height="16.1"/><polyline class="cls-11" points="39.34 383.45 50.04 393.35 60.74 383.45"/><circle class="cls-12" cx="251.54" cy="76.83" r="11.6" transform="translate(149.46 319.22) rotate(-84.15)"/><rect class="cls-11" x="244.94" y="71.95" width="13.6" height="10.2"/><polyline class="cls-11" points="244.94 71.95 251.74 78.25 258.54 71.95"/><path class="cls-6" d="M210.34,385a5.1,5.1,0,1,1-5.1-5.1A5.12,5.12,0,0,1,210.34,385Z"/><path class="cls-13" d="M260.64,340.35a2.7,2.7,0,1,1-2.7-2.7A2.75,2.75,0,0,1,260.64,340.35Z"/><circle class="cls-14" cx="616.15" cy="408.17" r="8.1" transform="translate(-109.56 268.2) rotate(-22.61)"/><circle class="cls-6" cx="485.34" cy="263.85" r="7.1"/><path class="cls-15" d="M692,259.55a5.5,5.5,0,1,1-5.5-5.5A5.42,5.42,0,0,1,692,259.55Z"/><path class="cls-12" d="M346.74,186.25a4.2,4.2,0,1,1-4.2-4.2A4.23,4.23,0,0,1,346.74,186.25Z"/><path class="cls-16" d="M289.74,331.25c3.8,35-22.5,66.6-58.8,70.6s-68.9-21.2-72.7-56.2"/><path class="cls-17" d="M230.14,370.55H85.84a9.28,9.28,0,0,1-9.3-9.3v-93.6a9.28,9.28,0,0,1,9.3-9.3h144.3a9.28,9.28,0,0,1,9.3,9.3v93.6A9.22,9.22,0,0,1,230.14,370.55Z"/><path class="cls-18" d="M219.44,350.35H96.64a9.28,9.28,0,0,1-9.3-9.3v-66.9a9.28,9.28,0,0,1,9.3-9.3h122.7a9.28,9.28,0,0,1,9.3,9.3v66.9A9.2,9.2,0,0,1,219.44,350.35Z"/><g class="cls-19"><path class="cls-20" d="M117.34,372s-8.2,22.9-6.3,25.4,61.8,3.3,66.8,3.1-3.5-36.2-7.7-46.6"/><path class="cls-21" d="M148.74,383.85s6.7-4.5,24.1-.2c0,0,3.4,1.5.8,2.2s-9-.4-9-.4,10,.9,10.2,2.7-9.4,0-9.4,0,10.4,1.6,10.3,3.4-5.9-.2-11.5.2-15.9,4.5-17.4,3.4C145,394.05,141.64,386.55,148.74,383.85Z"/><path class="cls-22" d="M154.74,395c2.2-6.2,1.3-10.7-6.2-12.7a22.85,22.85,0,0,0-.2,7c.5,4.3,1.9,7.9,3.7,9.8A17.4,17.4,0,0,0,154.74,395Z"/></g><path class="cls-23" d="M216.89,282.6h-28a5.06,5.06,0,0,1-5-5.05h0a5.06,5.06,0,0,1,5-5.05h28a5.06,5.06,0,0,1,5.05,5.05h0A5.07,5.07,0,0,1,216.89,282.6Z"/><path class="cls-23" d="M219.44,350.35H96.64a9.28,9.28,0,0,1-9.3-9.3v-66.9a9.28,9.28,0,0,1,9.3-9.3h122.7a9.28,9.28,0,0,1,9.3,9.3v66.9A9.2,9.2,0,0,1,219.44,350.35Z"/><path class="cls-24" d="M162,360.15c-.3,4.9-7.6,4.9-7.6,0s7.4-4.9,7.6,0a.65.65,0,0,0,1.3,0,5.12,5.12,0,0,0-5.1-5.1,5.1,5.1,0,0,0-.3,10.2,5.1,5.1,0,0,0,5.3-5.1C163.34,359.35,162.14,359.35,162,360.15Z"/><path class="cls-25" d="M323.64,219.15H202.24a7.92,7.92,0,0,1-7.9-7.9v-78.7a7.92,7.92,0,0,1,7.9-7.9h121.3a7.92,7.92,0,0,1,7.9,7.9v78.7A7.77,7.77,0,0,1,323.64,219.15Z"/><path class="cls-26" d="M314.54,202.25H211.34a7.92,7.92,0,0,1-7.9-7.9v-56.3a7.92,7.92,0,0,1,7.9-7.9h103.2a7.92,7.92,0,0,1,7.9,7.9v56.3A7.85,7.85,0,0,1,314.54,202.25Z"/><path class="cls-24" d="M266.24,210.45c-.2,4-6.2,4-6.2,0s6-4,6.2,0a.65.65,0,0,0,1.3,0,4.4,4.4,0,0,0-8.8,0,4.4,4.4,0,1,0,8.8,0C267.54,209.65,266.34,209.65,266.24,210.45Z"/><path class="cls-27" d="M167.84,177.45H46.54a7.92,7.92,0,0,1-7.9-7.9V90.85a7.92,7.92,0,0,1,7.9-7.9h121.3a7.92,7.92,0,0,1,7.9,7.9v78.7A7.85,7.85,0,0,1,167.84,177.45Z"/><path class="cls-24" d="M110.54,168.75c-.2,4-6.2,4-6.2,0s6-4,6.2,0a.65.65,0,0,0,1.3,0,4.4,4.4,0,0,0-8.8,0,4.4,4.4,0,1,0,8.8,0A.65.65,0,0,0,110.54,168.75Z"/><path class="cls-18" d="M158.84,160.45H55.64a7.92,7.92,0,0,1-7.9-7.9V96.35a7.92,7.92,0,0,1,7.9-7.9h103.2a7.92,7.92,0,0,1,7.9,7.9v56.3A8,8,0,0,1,158.84,160.45Z"/><g class="cls-28"><circle class="cls-29" cx="89.14" cy="164.35" r="3.2"/><path class="cls-29" d="M67.84,166.05a3,3,0,1,1-3-3A3,3,0,0,1,67.84,166.05Z"/><circle class="cls-29" cx="77.64" cy="174.75" r="3.2"/><circle class="cls-29" cx="107.34" cy="174.15" r="2.6"/><path class="cls-29" d="M123,179.35a2.6,2.6,0,1,1-2.6-2.6A2.65,2.65,0,0,1,123,179.35Z"/><path class="cls-29" d="M64.34,180.65a2.7,2.7,0,1,1-2.7-2.7A2.69,2.69,0,0,1,64.34,180.65Z"/><path class="cls-29" d="M95.74,183.35a2.7,2.7,0,1,1-2.7-2.7A2.69,2.69,0,0,1,95.74,183.35Z"/><line class="cls-23" x1="132.24" y1="170.45" x2="111.44" y2="161.85"/><line class="cls-23" x1="132.24" y1="161.45" x2="129.34" y2="169.25"/><line class="cls-23" x1="128.64" y1="160.05" x2="125.64" y2="167.65"/></g><path class="cls-1" d="M158.84,160.45H55.64a7.92,7.92,0,0,1-7.9-7.9V96.35a7.92,7.92,0,0,1,7.9-7.9h103.2a7.92,7.92,0,0,1,7.9,7.9v56.3A8,8,0,0,1,158.84,160.45Z"/><path class="cls-23" d="M158.84,160.45H55.64a7.92,7.92,0,0,1-7.9-7.9V96.35a7.92,7.92,0,0,1,7.9-7.9h103.2a7.92,7.92,0,0,1,7.9,7.9v56.3A8,8,0,0,1,158.84,160.45Z"/><path class="cls-30" d="M397.24,339.45H274.74a7.92,7.92,0,0,1-7.9-7.9v-79.4a7.92,7.92,0,0,1,7.9-7.9h122.5a7.92,7.92,0,0,1,7.9,7.9v79.4A7.85,7.85,0,0,1,397.24,339.45Z"/><path class="cls-24" d="M339.34,330.65c-.2,4-6.3,4.1-6.3,0s6.1-4,6.3,0a.65.65,0,0,0,1.3,0,4.4,4.4,0,1,0-4.6,4.4,4.44,4.44,0,0,0,4.6-4.4C340.64,329.85,339.44,329.85,339.34,330.65Z"/><path class="cls-18" d="M389.44,322.35H285.24a7.92,7.92,0,0,1-7.9-7.9v-56.8a7.92,7.92,0,0,1,7.9-7.9h104.2a7.92,7.92,0,0,1,7.9,7.9v56.8A8,8,0,0,1,389.44,322.35Z"/><path class="cls-23" d="M389.44,322.35H285.24a7.92,7.92,0,0,1-7.9-7.9v-56.8a7.92,7.92,0,0,1,7.9-7.9h104.2a7.92,7.92,0,0,1,7.9,7.9v56.8A8,8,0,0,1,389.44,322.35Z"/><path class="cls-31" d="M680.84,226H436a13.61,13.61,0,0,1-13.6-13.6V36.75A13.61,13.61,0,0,1,436,23.15h244.9a13.61,13.61,0,0,1,13.6,13.6v175.6A13.7,13.7,0,0,1,680.84,226Z"/><path class="cls-32" d="M612.74,251.35H589a5.87,5.87,0,0,1-5.4-8.2l12.8-29.5,10.9-25.2a5.9,5.9,0,0,1,10.8,0l10.9,25.2,12.8,29.5a5.87,5.87,0,0,1-5.4,8.2Z"/><path class="cls-23" d="M620,203.15a7,7,0,1,1-7-7A7,7,0,0,1,620,203.15Z"/><path class="cls-26" d="M676.44,187.85H444.84a6.23,6.23,0,0,1-6.2-6.2V45a6.23,6.23,0,0,1,6.2-6.2h231.6a6.23,6.23,0,0,1,6.2,6.2v136.6A6.13,6.13,0,0,1,676.44,187.85Z"/><path class="cls-23" d="M676.44,187.85H444.84a6.23,6.23,0,0,1-6.2-6.2V45a6.23,6.23,0,0,1,6.2-6.2h231.6a6.23,6.23,0,0,1,6.2,6.2v136.6A6.13,6.13,0,0,1,676.44,187.85Z"/><path class="cls-26" d="M548.94,6.45h44.3a10.29,10.29,0,0,1,10.3,10.3V61l-10.4-9.6h-44.2a10.29,10.29,0,0,1-10.3-10.3V16.75A10.29,10.29,0,0,1,548.94,6.45Z"/><text class="cls-33" transform="translate(559.58 40.91)">?</text><text class="cls-34" transform="translate(559.58 40.91)">?</text><path class="cls-22" d="M64.94,232.75a18.65,18.65,0,0,0-8.2-12.4,19.58,19.58,0,0,0-21.3,0,18,18,0,0,0-8.2,12.4c-2,11.1,7.8,17,9.6,19.2a8.1,8.1,0,0,1,1.8,2.2c.1.3.3,1.3.5,2.5h14a10.17,10.17,0,0,1,.5-2.5,8.1,8.1,0,0,1,1.8-2.2C57.24,249.75,66.94,243.85,64.94,232.75Z"/><path class="cls-18" d="M43.14,258s0-10.5-.8-12-4.3-6.7-4.9-7.8.6-2.4,1.6-.8c.8,1.4,4.2,6.2,5,8.1s1.4,13,1.4,13Z"/><path class="cls-18" d="M48.94,258s0-10.5.8-12,4.3-6.7,4.9-7.8-.6-2.4-1.6-.8c-.8,1.4-4.2,6.2-5,8.1s-1.4,13-1.4,13Z"/><path class="cls-18" d="M54,237.75a8.83,8.83,0,0,1-5.6.2h0a4.23,4.23,0,0,1-5-.4,17.3,17.3,0,0,1-4.8.8v-1a14.38,14.38,0,0,0,4-.6c-1-1.1-1.3-2.3-.6-3.2a1.9,1.9,0,0,1,2.7-.5,2.5,2.5,0,0,1,.5,3.2,2.34,2.34,0,0,1-.7.7,3.26,3.26,0,0,0,3,.4,5.55,5.55,0,0,1-.8-.6,1.78,1.78,0,0,1,.1-2.3,2,2,0,0,1,1.9-.9A1.86,1.86,0,0,1,50,235a2.88,2.88,0,0,1-.5,2,7.55,7.55,0,0,0,4.5-.3Zm-6.3-3a1.38,1.38,0,0,0-.3.4.92.92,0,0,0-.1,1.1,2,2,0,0,0,.9.6,1.65,1.65,0,0,0,.6-1.5,1.06,1.06,0,0,0-.6-.7A1.09,1.09,0,0,0,47.74,234.75Zm-4.2,1.7a2.17,2.17,0,0,0,.7-.6,1.33,1.33,0,0,0-.2-1.8.9.9,0,0,0-1.3.3c-.4.5,0,1.3.6,1.9Z"/><path class="cls-26" d="M46,255.65a21.75,21.75,0,0,1-7.6-1.3c0,.1.1.1.1.2.5,1,1.1,9.7,2.5,13.1a2.28,2.28,0,0,0,.8,1.2,8.6,8.6,0,0,0,4.2,1,7.87,7.87,0,0,0,4.2-1,2.28,2.28,0,0,0,.8-1.2c1.4-3.4,2-12.1,2.5-13.1a.35.35,0,0,1,.1-.2A21.19,21.19,0,0,1,46,255.65Z"/><path class="cls-24" d="M46,259.55a22.86,22.86,0,0,0,6.8-1c.1-1,.3-2,.4-2.7a20.69,20.69,0,0,1-14.3,0c.1.7.2,1.6.4,2.7A21.77,21.77,0,0,0,46,259.55Z"/><path class="cls-24" d="M46,264a25.54,25.54,0,0,0,6.1-.8c.2-.9.3-1.8.4-2.6a20.64,20.64,0,0,1-13,0c.1.9.3,1.8.4,2.6A21.78,21.78,0,0,0,46,264Z"/><path class="cls-24" d="M40.44,265.25a13.7,13.7,0,0,0,.7,2.4c0,.1.1.2.1.3a27,27,0,0,0,4.8.5,26.07,26.07,0,0,0,4.8-.5c0-.1.1-.2.1-.3a9.94,9.94,0,0,0,.7-2.4A19.42,19.42,0,0,1,40.44,265.25Z"/><path class="cls-26" d="M46.44,211.65h0a2,2,0,0,1-2.1-2v-9.5a2,2,0,0,1,2-2h0a2,2,0,0,1,2,2v9.5A1.86,1.86,0,0,1,46.44,211.65Z"/><path class="cls-26" d="M60.94,214.25h0a2,2,0,0,1-.9-2.7l4.5-8.3a2,2,0,0,1,2.7-.8h0a1.89,1.89,0,0,1,.8,2.7l-4.5,8.3A1.83,1.83,0,0,1,60.94,214.25Z"/><path class="cls-26" d="M31.94,214.25h0a2,2,0,0,0,.9-2.7l-4.5-8.3a2,2,0,0,0-2.7-.8h0a1.89,1.89,0,0,0-.8,2.7l4.5,8.3A1.83,1.83,0,0,0,31.94,214.25Z"/><path class="cls-26" d="M21.14,225.35h0a2.05,2.05,0,0,1-2.4,1.6l-9.3-1.9a2.05,2.05,0,0,1-1.6-2.4h0a2.05,2.05,0,0,1,2.4-1.6l9.3,1.9A2.1,2.1,0,0,1,21.14,225.35Z"/><path class="cls-26" d="M20.64,240.45h0a2,2,0,0,0-2.5-1.4L9,241.75a2,2,0,0,0-1.4,2.5h0a2,2,0,0,0,2.5,1.4l9.1-2.7A2,2,0,0,0,20.64,240.45Z"/><path class="cls-26" d="M71.64,225.35h0A2.05,2.05,0,0,0,74,227l9.3-1.9a2.05,2.05,0,0,0,1.6-2.4h0a2.05,2.05,0,0,0-2.4-1.6l-9.3,1.9A2.1,2.1,0,0,0,71.64,225.35Z"/><path class="cls-26" d="M72.14,240.45h0a2,2,0,0,1,2.5-1.4l9.1,2.7a2,2,0,0,1,1.4,2.5h0a2,2,0,0,1-2.5,1.4l-9.1-2.7A2,2,0,0,1,72.14,240.45Z"/><circle class="cls-35" cx="613.76" cy="157.01" r="13.33"/><circle class="cls-36" cx="613.76" cy="157.01" r="7.1"/><circle class="cls-35" cx="539.03" cy="157.01" r="13.33"/><circle class="cls-37" cx="539.03" cy="157.01" r="7.1"/><path class="cls-38" d="M651.08,100.44H618.59v33.28h45.14V113.09A12.65,12.65,0,0,0,651.08,100.44Z"/><path class="cls-39" d="M657.06,124.28V112a6.82,6.82,0,0,0-6.81-6.8h-21v19.11Z"/><path class="cls-40" d="M662,130.73h-43.4V157h51.92V139.25A8.52,8.52,0,0,0,662,130.73Z"/><rect class="cls-37" x="519.1" y="85.19" width="103.53" height="71.97"/><rect class="cls-37" x="479.34" y="85.34" width="39.76" height="72.49" transform="translate(998.44 243.17) rotate(180)"/><rect class="cls-41" x="466.75" y="105.61" width="64.94" height="31.73" transform="translate(620.69 -377.74) rotate(90)"/><rect class="cls-42" x="483.35" y="120.66" width="31.73" height="33.28"/><path class="cls-43" d="M622.63,151.65h49.06A1.31,1.31,0,0,1,673,153v5.3a1.31,1.31,0,0,1-1.31,1.31H622.63a0,0,0,0,1,0,0v-7.92A0,0,0,0,1,622.63,151.65Z"/><rect class="cls-43" x="479.34" y="156.44" width="143.29" height="3.14" transform="translate(1101.97 316.01) rotate(180)"/><circle class="cls-35" cx="644.55" cy="157.01" r="13.33"/><circle class="cls-37" cx="644.55" cy="157.01" r="7.1"/><polygon class="cls-41" points="463.62 168.84 483.35 153.95 515.09 153.95 495.36 168.84 463.62 168.84"/><rect class="cls-44" x="533.79" y="164.67" width="27.47" height="22.45" transform="translate(1095.05 351.8) rotate(-180)"/><rect class="cls-45" x="561.26" y="164.67" width="19.5" height="22.45" transform="translate(1142.02 351.8) rotate(-180)"/><path class="cls-37" d="M568.28,171.37h5.9a1.6,1.6,0,0,0,1.59-1.59h0a1.59,1.59,0,0,0-1.59-1.59h-5.9a1.59,1.59,0,0,0-1.59,1.59h0A1.59,1.59,0,0,0,568.28,171.37Z"/><rect class="cls-37" x="536.59" y="182.4" width="7.31" height="2.43" transform="translate(1080.48 367.24) rotate(-180)"/><path class="cls-37" d="M546.06,163.85h9a.92.92,0,0,1,1,.77v0H555v13.59H545V164.62C545,164.2,545.5,163.85,546.06,163.85Z"/><rect class="cls-46" x="454.96" y="130.77" width="27.47" height="22.45" transform="translate(937.4 283.99) rotate(-180)"/><rect class="cls-47" x="482.44" y="130.77" width="19.5" height="22.45" transform="translate(984.37 283.99) rotate(-180)"/><path class="cls-37" d="M489.45,137.46h5.9a1.59,1.59,0,0,0,1.59-1.59h0a1.59,1.59,0,0,0-1.59-1.58h-5.9a1.59,1.59,0,0,0-1.59,1.58h0A1.59,1.59,0,0,0,489.45,137.46Z"/><rect class="cls-37" x="457.76" y="148.5" width="7.31" height="2.43" transform="translate(922.82 299.43) rotate(-180)"/><path class="cls-37" d="M467.24,130h9c.56,0,1,.34,1,.77v.05h-1.18v13.59h-9.91V130.72C466.21,130.29,466.67,130,467.24,130Z"/><rect class="cls-48" x="451.84" y="164.67" width="27.47" height="22.45" transform="translate(931.16 351.8) rotate(-180)"/><rect class="cls-49" x="479.32" y="164.67" width="19.5" height="22.45" transform="translate(978.14 351.8) rotate(-180)"/><path class="cls-37" d="M486.33,171.37h5.91a1.6,1.6,0,0,0,1.59-1.59h0a1.59,1.59,0,0,0-1.59-1.59h-5.91a1.59,1.59,0,0,0-1.58,1.59h0A1.59,1.59,0,0,0,486.33,171.37Z"/><rect class="cls-37" x="454.64" y="182.4" width="7.31" height="2.43" transform="translate(916.59 367.24) rotate(-180)"/><path class="cls-37" d="M464.12,163.85h9c.56,0,1,.35,1,.77v0H473v13.59H463.1V164.62A.92.92,0,0,1,464.12,163.85Z"/><rect class="cls-50" x="504.01" y="164.67" width="27.47" height="22.45" transform="translate(1035.49 351.8) rotate(-180)"/><rect class="cls-51" x="531.48" y="164.67" width="19.5" height="22.45" transform="translate(1082.47 351.8) rotate(-180)"/><path class="cls-37" d="M538.5,171.37h5.9a1.59,1.59,0,0,0,1.59-1.59h0a1.59,1.59,0,0,0-1.59-1.59h-5.9a1.59,1.59,0,0,0-1.59,1.59h0A1.6,1.6,0,0,0,538.5,171.37Z"/><rect class="cls-37" x="506.81" y="182.4" width="7.31" height="2.43" transform="translate(1020.92 367.24) rotate(-180)"/><path class="cls-37" d="M516.28,163.85h9c.57,0,1,.35,1,.77v0h-1.18v13.59h-9.91V164.62C515.26,164.2,515.72,163.85,516.28,163.85Z"/><rect class="cls-52" x="516.99" y="142.33" width="27.47" height="22.45" transform="translate(1061.46 307.1) rotate(-180)"/><rect class="cls-53" x="544.47" y="142.33" width="19.5" height="22.45" transform="translate(1108.44 307.1) rotate(-180)"/><path class="cls-37" d="M551.48,149h5.91a1.59,1.59,0,0,0,1.58-1.59h0a1.59,1.59,0,0,0-1.58-1.59h-5.91a1.6,1.6,0,0,0-1.59,1.59h0A1.59,1.59,0,0,0,551.48,149Z"/><rect class="cls-37" x="519.79" y="160.06" width="7.31" height="2.43" transform="translate(1046.89 322.55) rotate(-180)"/><path class="cls-37" d="M529.27,141.51h9c.56,0,1,.34,1,.76v0h-1.17v13.6h-9.91V142.27C528.25,141.85,528.7,141.51,529.27,141.51Z"/><path class="cls-54" d="M587.44,405.85H443.14a9.28,9.28,0,0,1-9.3-9.3V303a9.28,9.28,0,0,1,9.3-9.3h144.3a9.28,9.28,0,0,1,9.3,9.3v93.6A9.22,9.22,0,0,1,587.44,405.85Z"/><path class="cls-24" d="M519.34,395.45c-.3,4.9-7.6,4.9-7.6,0s7.4-4.9,7.6,0a.65.65,0,0,0,1.3,0,5.12,5.12,0,0,0-5.1-5.1,5.1,5.1,0,0,0-.3,10.2,5.1,5.1,0,0,0,5.3-5.1C520.64,394.65,519.44,394.65,519.34,395.45Z"/><path class="cls-26" d="M576.64,385.75H453.94a9.28,9.28,0,0,1-9.3-9.3v-66.9a9.28,9.28,0,0,1,9.3-9.3h122.7a9.28,9.28,0,0,1,9.3,9.3v66.9A9.22,9.22,0,0,1,576.64,385.75Z"/><path class="cls-55" d="M504.9,385.75a41.14,41.14,0,0,0-2.5-10.35c-1.26,1-5.24,1.43-6.28,1.62a42.75,42.75,0,0,1-7.49.67c-3.28,0-6.32-.83-9.56-1.2a31.17,31.17,0,0,0-3.33-.72.49.49,0,0,0-.13.28,53.23,53.23,0,0,0-1.16,9.7Z"/><path class="cls-56" d="M488.63,377.69a42.75,42.75,0,0,0,7.49-.67c1-.19,5-.63,6.28-1.62a1,1,0,0,0,.36-.46.45.45,0,0,0,0-.28c-1.43-4.43-2.66-8.88-2.34-13.6.05-.76.13-1.52.25-2.28a13.35,13.35,0,0,1,.6-1.89,21.76,21.76,0,0,0,.53-2.29,36.89,36.89,0,0,0,.52-4.58c.14-2.32.14-4.77-.93-6.84a13.34,13.34,0,0,0-.86-1.39,11.35,11.35,0,0,0-3.08-3.32,11.12,11.12,0,0,0-4.61-1.65c-7.27-1-11.08,6-14.47,11.08a10.54,10.54,0,0,0-1.16,2.07,6.78,6.78,0,0,0,.37,5c.93,2.11,2.07,3.9,2.62,6.22a13.94,13.94,0,0,1,.05,6.91c-.75,2.75-2.51,5.1-4.23,7.37,0,0,.61.2,1.45.45,1.6.48,4,1.18,4.38,1.24A40.91,40.91,0,0,0,488.63,377.69Z"/><path class="cls-57" d="M509.06,355.9a6.52,6.52,0,0,0-2.66-.29,3.81,3.81,0,0,0-2.43,1.27,2.8,2.8,0,0,0-.62,1.42c-.49-.77-1-1.56-1.42-2.35l-.73-1.29-3.44-6.07a45.22,45.22,0,0,1-3.05-5.59c-.68-1.73-.14-4,2-4.25s4,1.89,5.22,3.39a34.64,34.64,0,0,1,3.93,6.92c.74,1.5,1.46,3,2.17,4.54Z"/><path class="cls-58" d="M509.06,355.9a6.5,6.5,0,0,0-2.66-.29,3.81,3.81,0,0,0-2.43,1.27,2.8,2.8,0,0,0-.62,1.42,23.3,23.3,0,0,0,3.84,4.76c.89.81,2.16,1.56,3.22,1a2.18,2.18,0,0,0,1-2.06,6.46,6.46,0,0,0-.69-2.33C510.19,358.41,509.63,357.15,509.06,355.9Z"/><path class="cls-59" d="M492.55,341.3a1.23,1.23,0,0,1-.38.19,9.53,9.53,0,0,1-5.67.39,3.86,3.86,0,0,1-3.18-2.92.65.65,0,0,1,0-.56c.16-.28.62-.27,1-.38.81-.26.92-1.19.89-1.93,0-.28,0-.56,0-.84,0-1.24-.09-2.48-.14-3.73,2.64-.28,4.78-1.48,7.06-2.66.13,1.7.23,3.39.31,5.07C492.47,336.38,492.54,338.83,492.55,341.3Z"/><path d="M488.41,310a5.23,5.23,0,0,1,3.55,1.09c2.66,1.89,4,5.1,4.91,8.24a68,68,0,0,1,1.92,11.25q.61,5.87,1.24,11.74l.33,3.17c.05.51-2.36.93-2.72,1a8.61,8.61,0,0,1-4.42-.21.88.88,0,0,1-.55-.36.94.94,0,0,1-.09-.47q-.13-4.31-.25-8.63c-.05-1.46-.09-2.92-.13-4.39,0-1.12.31-2.4-1.2-2.23-.76.09-1.52.25-2.29.37-.23,0-3.26.52-3.28.3l1.29,12.87a18.71,18.71,0,0,1,.3,3.41c-2.15,1.08-4.64.45-6.77-.34a1.37,1.37,0,0,1-.64-.4,1.43,1.43,0,0,1-.19-.79c-.19-6.34-.18-12.69-.13-19,0-3.91-.29-8.53,1.75-12.06a5.12,5.12,0,0,1,1.87-2,3,3,0,0,1,2.84,0A3.13,3.13,0,0,1,488.41,310Z"/><path class="cls-58" d="M490.78,318.09c-1.06-.44-2.24-.56-3.32-.93-.22-.07-2.45-1.18-2.15-1.52a4.23,4.23,0,0,1-2.82,1.43,21.36,21.36,0,0,0,.83,13,7.48,7.48,0,0,0,1.87,2.95c2.22,1.92,4.86.38,6.45-1.51a9,9,0,0,0,1.21-1.84c.1-.2.9-1.95.71-2.08a1.36,1.36,0,0,0,1.52-.07,2.78,2.78,0,0,0,1.05-2.79,1.53,1.53,0,0,0-.68-1.12,1.64,1.64,0,0,0-1.77.44,1.31,1.31,0,0,1-.43.31.38.38,0,0,1-.48-.12.47.47,0,0,1-.06-.21,6.74,6.74,0,0,1,0-1.49c.08-1.25.35-2.59-.58-3.6A3.78,3.78,0,0,0,490.78,318.09Z"/><path class="cls-60" d="M491.23,325.75a.95.95,0,1,1-1-.87A1,1,0,0,1,491.23,325.75Z"/><path class="cls-60" d="M484.2,326.64a.9.9,0,0,1-1.79.14.89.89,0,0,1,.82-1A.9.9,0,0,1,484.2,326.64Z"/><path class="cls-59" d="M486.51,324.31a1.9,1.9,0,0,1-.71,1.49,1.34,1.34,0,0,1-.43.26,2.35,2.35,0,0,1-.46.11l-.14,0a.27.27,0,0,0,.12-.08.52.52,0,0,0,.14-.26c0-.27,0-.1.08,0a1.94,1.94,0,0,0,.26.31,1.73,1.73,0,0,0,.84.39h.05a.4.4,0,0,1,.31.46.36.36,0,0,1-.21.27,1.84,1.84,0,0,1-1.65,0,2.31,2.31,0,0,1-.7-.53,1.57,1.57,0,0,1-.28-.39,1.21,1.21,0,0,1-.14-.76,1,1,0,0,1,.28-.54,1.1,1.1,0,0,1,.4-.24,1.64,1.64,0,0,1,.49-.09h.17l.14,0a1.83,1.83,0,0,0,.71-.61l0,0a.38.38,0,0,1,.54-.08A.41.41,0,0,1,486.51,324.31Z"/><path d="M489.76,322.89a.66.66,0,1,1-.7-.6A.65.65,0,0,1,489.76,322.89Z"/><path d="M484.52,323a.65.65,0,1,1-1.3.1.65.65,0,1,1,1.3-.1Z"/><path d="M488.7,319.71a1.25,1.25,0,0,1,1.93,1.32,5.13,5.13,0,0,1-1.07-.51A4.62,4.62,0,0,1,488.7,319.71Z"/><path d="M484.65,320.05a3.08,3.08,0,0,1-.79.67,2.94,2.94,0,0,1-1,.27,1,1,0,0,1,1.79-.94Z"/><path class="cls-59" d="M495.55,324.79a.21.21,0,0,0,0-.1s0,0,0-.05a.94.94,0,0,0-.49-.49,1.08,1.08,0,0,0-1.17.39.11.11,0,0,0,0,.11.11.11,0,0,0,.13,0h0a1,1,0,0,1,.9-.17.66.66,0,0,1,.28.31,1.45,1.45,0,0,1-.39.48,4.66,4.66,0,0,1-.63.43.1.1,0,0,0,.09.17,4.37,4.37,0,0,0,.71-.37,1.91,1.91,0,0,0,.33-.25h0a1.41,1.41,0,0,1-.3.94,1.85,1.85,0,0,1-.87.59.07.07,0,0,0,0,.06.06.06,0,0,0,.06.05,1.73,1.73,0,0,0,1.07-.5,1.59,1.59,0,0,0,.38-1.62Z"/><rect class="cls-61" x="458.3" y="351.2" width="39.4" height="22.38" transform="translate(902.06 -61.86) rotate(97.82)"/><rect class="cls-41" x="469.7" y="346.14" width="16.6" height="32.52" transform="translate(53.75 -61.66) rotate(7.82)"/><rect class="cls-61" x="489.08" y="344.35" width="1.97" height="39.4" transform="translate(54.08 -63.28) rotate(7.82)"/><polygon class="cls-18" points="470.54 355.74 484.3 377.58 485 372.44 471.24 350.6 470.54 355.74"/><polygon class="cls-18" points="486.11 364.4 474.17 345.46 472.59 345.24 485.85 366.29 486.11 364.4"/><polygon class="cls-18" points="469.34 364.45 478.43 378.87 480.01 379.08 469.6 362.56 469.34 364.45"/><path class="cls-58" d="M465.11,363.15a2.13,2.13,0,0,0,2.33,1.5,9.61,9.61,0,0,0,4.1-1.59,3.9,3.9,0,0,0,2.11-2.73A1.37,1.37,0,0,0,473,359a2.24,2.24,0,0,0-1.78.17c-.85.31-2.92,1.13-3.59.49-.84-.81-.18-2.07-.12-3s-.61-.61-1-.15a7.18,7.18,0,0,0-1.75,4.88,4.08,4.08,0,0,0,.18,1.43A3.62,3.62,0,0,0,465.11,363.15Z"/><path class="cls-58" d="M491.27,352.66a64.76,64.76,0,0,0,14.22,5.83,16.75,16.75,0,0,1,3.32,1.16c1.38.73,3.34,2.75,2.12,4.45a1.69,1.69,0,0,1-.76.58,5.63,5.63,0,0,1-3.13.22,22.34,22.34,0,0,1-7.69-2.92,70.28,70.28,0,0,1-6.78-4.73,13.81,13.81,0,0,0-3.14-1.8c-1.08-.44-2.29-.26-3.36-.73a8.33,8.33,0,0,1-2.36-2.15c-1.36-1.44-2.12-2.74-1.87-4.69.06-.44.39-.92.82-.86a1,1,0,0,1,.43.21c.88.67,1.45,1.69,2.38,2.28.57.37,2.35,1.2,3,.64.46-.42-.44-2.5.36-2.45a.57.57,0,0,1,.39.29,8.56,8.56,0,0,1,1.49,3.73,1.38,1.38,0,0,0,.2.66A1.34,1.34,0,0,0,491.27,352.66Z"/><rect class="cls-62" x="512.47" y="354.25" width="14.36" height="31.53"/><rect class="cls-63" x="526.83" y="354.25" width="29.36" height="31.53"/><rect class="cls-37" x="529.65" y="380.93" width="9.65" height="2.7"/><polygon class="cls-37" points="520.89 354.25 517.47 354.25 517.47 362.17 517.86 362.17 518.17 361.64 518.47 362.17 518.87 362.17 519.18 361.64 519.48 362.17 519.88 362.17 520.18 361.64 520.49 362.17 520.89 362.17 520.89 354.25"/><polygon class="cls-37" points="541.01 354.25 537.59 354.25 537.59 362.17 537.98 362.17 538.29 361.64 538.59 362.17 538.99 362.17 539.3 361.64 539.6 362.17 540 362.17 540.3 361.64 540.61 362.17 541.01 362.17 541.01 354.25"/><polygon class="cls-37" points="550.96 354.25 547.54 354.25 547.54 362.17 547.94 362.17 548.24 361.64 548.55 362.17 548.95 362.17 549.25 361.64 549.56 362.17 549.95 362.17 550.26 361.64 550.56 362.17 550.96 362.17 550.96 354.25"/><rect class="cls-64" x="519.65" y="332.18" width="11.78" height="22.07"/><rect class="cls-65" x="531.42" y="332.18" width="22.07" height="22.07"/><polygon class="cls-66" points="529.38 327.81 517.61 327.81 519.65 332.18 531.42 332.18 529.38 327.81"/><polygon class="cls-67" points="533.45 327.81 555.54 327.81 553.5 332.18 531.41 332.18 533.45 327.81"/><rect class="cls-37" x="545.49" y="348.4" width="6.64" height="3.72"/><path class="cls-23" d="M576.64,385.75H453.94a9.28,9.28,0,0,1-9.3-9.3v-66.9a9.28,9.28,0,0,1,9.3-9.3h122.7a9.28,9.28,0,0,1,9.3,9.3v66.9A9.22,9.22,0,0,1,576.64,385.75Z"/><path class="cls-68" d="M630.64,271.25h-47.2a10.93,10.93,0,0,0-10.9,10.9v47.1l11.1-10.2h47a10.93,10.93,0,0,0,10.9-10.9v-26A10.93,10.93,0,0,0,630.64,271.25Z"/><path class="cls-26" d="M596.24,296.05a4.7,4.7,0,1,1-4.7-4.7A4.57,4.57,0,0,1,596.24,296.05Z"/><circle class="cls-26" cx="608.04" cy="296.05" r="4.7"/><path class="cls-26" d="M629.24,296.05a4.7,4.7,0,1,1-4.7-4.7A4.57,4.57,0,0,1,629.24,296.05Z"/><path class="cls-59" d="M485.85,328.6a7.66,7.66,0,0,0,1-.12,5.9,5.9,0,0,0,.92-.23,7.91,7.91,0,0,0,1.79-.9l0,0a.48.48,0,0,1,.68.63,3.74,3.74,0,0,1-2,1.66,3.6,3.6,0,0,1-1.34.23,2.79,2.79,0,0,1-1.3-.36.48.48,0,0,1-.17-.66.48.48,0,0,1,.37-.23Z"/><rect class="cls-69" x="290.39" y="278.14" width="38.68" height="41.76"/><rect class="cls-69" x="287.57" y="274.33" width="44.31" height="4.88"/><rect class="cls-70" x="293.6" y="298.99" width="32.26" height="15.89"/><rect class="cls-70" x="293.6" y="283.21" width="32.26" height="15.89"/><path d="M313.52,288h-7.58a1,1,0,0,1-1-1h0a1,1,0,0,1,1-1h7.58a1,1,0,0,1,1,1h0A1,1,0,0,1,313.52,288Z"/><path d="M313.52,303.8h-7.58a1,1,0,0,1-1-1h0a1,1,0,0,1,1-1h7.58a1,1,0,0,1,1,1h0A1,1,0,0,1,313.52,303.8Z"/><rect class="cls-69" x="292.4" y="319.9" width="34.67" height="2.65"/><path class="cls-71" d="M376.41,304.74a3.19,3.19,0,0,0-2.39-5.36,2.74,2.74,0,0,0-4.44-2.64,3.2,3.2,0,0,0-6.38,0,2.73,2.73,0,0,0-4.43,2.64,3.19,3.19,0,0,0-2.4,5.36,2.14,2.14,0,1,0,1.48,3.94c0,.1.53,0,.62,0h15a8.08,8.08,0,0,0,1.1,0h.08c.05,0,.1-.09.15-.1s.38.19.49.23a2.14,2.14,0,1,0,1.12-4.11Z"/><polygon class="cls-72" points="371.56 322.1 361.23 322.1 359.23 311.52 373.56 311.52 371.56 322.1"/><rect class="cls-73" x="357.99" y="308.72" width="16.8" height="2.79"/><line class="cls-74" x1="348.99" y1="261.59" x2="348.99" y2="273.85"/><rect class="cls-75" x="347.91" y="273.85" width="2.08" height="3.92"/><rect class="cls-76" x="347.91" y="277.77" width="2.08" height="0.9"/><rect x="342.44" y="261.59" width="2.64" height="55.11"/><rect class="cls-77" x="330.35" y="257.53" width="26.84" height="4.06"/><polygon class="cls-78" points="357.19 257.53 330.35 257.53 340.51 230.4 347.02 230.4 357.19 257.53"/><path d="M353.11,320.22H334.42a3.6,3.6,0,0,1,3.6-3.59h11.49a3.6,3.6,0,0,1,3.6,3.59Z"/><rect x="332" y="320.22" width="23.54" height="1.97"/><path class="cls-69" d="M107.9,335.27l3-.49-5.72-46.57a1.19,1.19,0,0,0-1.36-1l-4,.64a1.19,1.19,0,0,0-1,1.4Z"/><rect class="cls-79" x="99.08" y="313.52" width="55.27" height="8.06" transform="translate(253.43 635.11) rotate(-180)"/><rect class="cls-80" x="99.08" y="321.59" width="55.27" height="28.59" transform="translate(253.43 671.76) rotate(-180)"/><rect class="cls-81" x="154.35" y="313.52" width="29.32" height="8.06" transform="translate(338.03 635.11) rotate(-180)"/><rect class="cls-82" x="154.35" y="321.59" width="29.32" height="28.59" transform="translate(338.03 671.76) rotate(-180)"/><polygon class="cls-36" points="173.86 325.84 173.57 326.35 173.3 326.35 173.01 325.84 172.71 326.35 172.45 326.35 172.15 325.84 171.86 326.35 171.59 326.35 171.3 325.84 171 326.35 170.74 326.35 170.44 325.84 170.14 326.35 169.88 326.35 169.58 325.84 169.29 326.35 169.02 326.35 169.02 313.52 174.42 313.52 174.42 326.35 174.16 326.35 173.86 325.84"/><rect class="cls-36" x="102.64" y="342.35" width="4.51" height="4.51" transform="translate(209.8 689.21) rotate(-180)"/><rect class="cls-36" x="108.53" y="342.35" width="4.51" height="4.51" transform="translate(221.57 689.21) rotate(-180)"/><rect class="cls-36" x="114.41" y="342.35" width="4.51" height="4.51" transform="translate(233.34 689.21) rotate(-180)"/><rect class="cls-83" x="109.02" y="282.37" width="46.97" height="6.85" transform="translate(265.02 571.6) rotate(-180)"/><rect class="cls-84" x="109.02" y="289.23" width="46.97" height="24.3" transform="translate(265.02 602.75) rotate(-180)"/><rect class="cls-85" x="156" y="282.37" width="24.92" height="6.85" transform="translate(336.91 571.6) rotate(-180)"/><rect class="cls-86" x="156" y="289.23" width="24.92" height="24.3" transform="translate(336.91 602.75) rotate(-180)"/><rect class="cls-36" x="112.04" y="302.23" width="8.24" height="8.24" transform="translate(232.32 612.71) rotate(-180)"/><path class="cls-36" d="M141,276.94a.57.57,0,0,1,.57.57v4.29a.56.56,0,0,1-.57.57H118v-5.43Z"/><path class="cls-36" d="M110.61,276.94H113v5.43h-2.37a.57.57,0,0,1-.57-.57v-4.29A.58.58,0,0,1,110.61,276.94Z"/><rect class="cls-36" x="112.98" y="276.94" width="5.01" height="5.43"/><circle class="cls-87" cx="138.41" cy="279.66" r="1.74"/><path class="cls-36" d="M137.84,271.55a.57.57,0,0,1,.57.57v4.29a.56.56,0,0,1-.57.57h-23v-5.43Z"/><path class="cls-36" d="M107.44,271.55h2.37V277h-2.37a.57.57,0,0,1-.57-.57v-4.29A.58.58,0,0,1,107.44,271.55Z"/><rect class="cls-36" x="109.81" y="271.55" width="5.01" height="5.43"/><circle class="cls-88" cx="135.24" cy="274.27" r="1.74"/><circle class="cls-69" cx="291.36" cy="124.86" r="14.9"/><circle class="cls-18" cx="291.36" cy="124.86" r="11.77"/><rect x="291.02" y="114.11" width="0.68" height="2.62" rx="0.34" transform="translate(582.73 230.84) rotate(180)"/><rect class="cls-89" x="295.74" y="115.37" width="0.68" height="2.62" rx="0.34" transform="translate(494.18 365.76) rotate(-150.01)"/><rect class="cls-89" x="299.2" y="118.83" width="0.68" height="2.62" rx="0.34" transform="translate(345.32 439.61) rotate(-120.01)"/><rect x="300.46" y="123.55" width="0.68" height="2.62" rx="0.34" transform="translate(175.95 425.66) rotate(-90)"/><rect class="cls-89" x="299.2" y="128.26" width="0.68" height="2.62" rx="0.34" transform="translate(37.52 324.15) rotate(-59.99)"/><rect class="cls-89" x="295.74" y="131.72" width="0.68" height="2.62" rx="0.34" transform="translate(-26.85 165.83) rotate(-29.99)"/><rect x="291.02" y="132.98" width="0.68" height="2.62" rx="0.34"/><rect class="cls-89" x="286.3" y="131.72" width="0.68" height="2.62" rx="0.34" transform="translate(104.96 -125.53) rotate(30.01)"/><rect class="cls-89" x="282.85" y="128.26" width="0.68" height="2.62" rx="0.34" transform="matrix(0.5, 0.87, -0.87, 0.5, 253.78, -180.46)"/><rect x="281.58" y="123.55" width="0.68" height="2.62" rx="0.34" transform="translate(406.78 -157.07) rotate(90)"/><rect class="cls-89" x="282.85" y="118.83" width="0.68" height="2.62" rx="0.34" transform="translate(528.85 -65.02) rotate(120.01)"/><rect class="cls-89" x="286.3" y="115.37" width="0.68" height="2.62" rx="0.34" transform="translate(593.22 74.36) rotate(149.99)"/><path d="M291.36,117.28h0a.35.35,0,0,1,.35.34v6.89a.35.35,0,0,1-.35.35h0a.35.35,0,0,1-.34-.35v-6.89A.35.35,0,0,1,291.36,117.28Z"/><path d="M286.65,124.86h0a.35.35,0,0,1,.34-.35h4a.35.35,0,0,1,.34.35h0a.34.34,0,0,1-.34.34h-4A.34.34,0,0,1,286.65,124.86Z"/><circle cx="291.36" cy="124.86" r="0.81"/><line class="cls-90" x1="299.29" y1="167.36" x2="299.29" y2="193.35"/><path class="cls-91" d="M299.39,167.36a52.44,52.44,0,0,1,1.16,6.5c.29,2.16.46,4.33.58,6.49s.16,4.34.15,6.5a12.33,12.33,0,0,1-1.89,6.5.13.13,0,0,1-.17,0l0,0a12.33,12.33,0,0,1-1.89-6.5q0-3.24.15-6.5c.12-2.16.29-4.33.58-6.49a50.64,50.64,0,0,1,1.16-6.5.1.1,0,0,1,.12-.08A.11.11,0,0,1,299.39,167.36Z"/><line class="cls-92" x1="289.97" y1="170.78" x2="298.68" y2="194.92"/><path class="cls-93" d="M290.07,170.75a49.9,49.9,0,0,1,3.26,5.64c1,1.91,1.88,3.87,2.73,5.84s1.6,4,2.31,6a12.08,12.08,0,0,1,.4,6.67.11.11,0,0,1-.14.09l-.05,0a12,12,0,0,1-3.95-5.39c-.74-2-1.42-4-2-6.09s-1.17-4.12-1.63-6.23a52,52,0,0,1-1.08-6.43.1.1,0,0,1,.09-.11A.12.12,0,0,1,290.07,170.75Z"/><line class="cls-94" x1="308.29" y1="170.78" x2="299.59" y2="194.92"/><path class="cls-95" d="M308.39,170.81a50.16,50.16,0,0,1-1.09,6.43c-.45,2.11-1,4.18-1.63,6.23s-1.3,4.08-2,6.09a11.9,11.9,0,0,1-3.95,5.39.12.12,0,0,1-.17,0s0,0,0-.05a12.08,12.08,0,0,1,.4-6.67q1.07-3,2.32-6c.84-2,1.72-3.93,2.72-5.84a51.55,51.55,0,0,1,3.27-5.64.1.1,0,0,1,.14,0A.12.12,0,0,1,308.39,170.81Z"/><path class="cls-69" d="M292.2,188.4h14.45l-2.25,13.1a.8.8,0,0,1-.79.68h-8.36a.81.81,0,0,1-.8-.68Z"/><rect class="cls-69" x="291.12" y="185.34" width="16.61" height="3.06" transform="translate(598.85 373.74) rotate(-180)"/><rect class="cls-96" x="213.71" y="128.84" width="46.74" height="69.49" rx="1.43" transform="translate(474.15 327.17) rotate(-180)"/><rect class="cls-36" x="218.33" y="133.67" width="37.48" height="59.83" transform="translate(474.15 327.17) rotate(-180)"/><rect class="cls-39" x="221.98" y="137.09" width="30.34" height="53.57" transform="translate(474.29 327.75) rotate(-180)"/><polygon class="cls-97" points="221.98 182.88 252.31 152.54 252.31 160.86 222.52 190.66 221.98 190.66 221.98 182.88"/><polygon class="cls-97" points="221.98 164.76 249.64 137.09 252.31 137.09 252.31 142.74 221.98 173.08 221.98 164.76"/><rect class="cls-98" x="228.29" y="176.06" width="31.74" height="25.94" transform="translate(488.32 378.06) rotate(-180)"/><rect class="cls-99" x="260.03" y="176.06" width="22.53" height="25.94" transform="translate(542.59 378.06) rotate(-180)"/><path class="cls-36" d="M268.14,183.8H275a1.84,1.84,0,0,0,1.83-1.84h0a1.84,1.84,0,0,0-1.83-1.84h-6.82A1.85,1.85,0,0,0,266.3,182h0A1.85,1.85,0,0,0,268.14,183.8Z"/><rect class="cls-36" x="231.52" y="196.55" width="8.44" height="2.81" transform="translate(471.48 395.9) rotate(-180)"/><path class="cls-36" d="M242.47,175.11h10.45c.65,0,1.18.4,1.18.89v.06h-1.36v15.7H241.29V176C241.29,175.51,241.82,175.11,242.47,175.11Z"/><rect class="cls-100" x="91.62" y="94.95" width="29.45" height="61.44"/><rect class="cls-101" x="69.97" y="94.95" width="21.66" height="61.44"/><polygon class="cls-36" points="110.89 94.95 104.22 94.95 104.22 110.38 105 110.38 105.59 109.35 106.18 110.38 106.96 110.38 107.55 109.35 108.15 110.38 108.92 110.38 109.52 109.35 110.11 110.38 110.89 110.38 110.89 94.95"/><path class="cls-102" d="M145.94,121.19v32.95a3,3,0,0,1-3,3H92.38a3,3,0,0,1-3-3V121.19a3,3,0,0,1,3-3H143A3,3,0,0,1,145.94,121.19Z"/><path class="cls-39" d="M95.12,119.1a5.26,5.26,0,0,0-.08-.89H92.38a3,3,0,0,0-3,3v2.7a4.84,4.84,0,0,0,5.72-4.79Z"/><path class="cls-39" d="M145.1,124a4.6,4.6,0,0,0,.84-.08v-2.7a3,3,0,0,0-3-3h-2.65a4.41,4.41,0,0,0-.09.89A4.87,4.87,0,0,0,145.1,124Z"/><path class="cls-39" d="M90.26,151.65a4.82,4.82,0,0,0-.86.08v2.41a3,3,0,0,0,3,3h2.7c0-.2,0-.4,0-.6A4.87,4.87,0,0,0,90.26,151.65Z"/><path class="cls-39" d="M145.94,154.14v-2.41a4.6,4.6,0,0,0-.84-.08,4.87,4.87,0,0,0-4.87,4.87c0,.2,0,.4,0,.6H143A3,3,0,0,0,145.94,154.14Z"/><rect class="cls-39" x="95.3" y="123.29" width="44.75" height="29.06" rx="2.71"/><path class="cls-103" d="M125.83,118.21v-2.74a1.87,1.87,0,0,0-2-1.7H111.51a1.86,1.86,0,0,0-2,1.7v2.74"/><path d="M95.08,157.12H99.7a0,0,0,0,1,0,0v2.18a.86.86,0,0,1-.86.86H95.94a.86.86,0,0,1-.86-.86v-2.18A0,0,0,0,1,95.08,157.12Z"/><path d="M135.61,157.12h4.62a0,0,0,0,1,0,0v2.18a.86.86,0,0,1-.86.86h-2.91a.86.86,0,0,1-.86-.86v-2.18A0,0,0,0,1,135.61,157.12Z"/><rect x="133.31" y="118.21" width="4.61" height="38.9"/><rect x="97.4" y="118.21" width="4.61" height="38.9"/><path class="cls-23" d="M145.94,121.19v32.95a3,3,0,0,1-3,3H92.38a3,3,0,0,1-3-3V121.19a3,3,0,0,1,3-3H143A3,3,0,0,1,145.94,121.19Z"/></svg>